<svg xmlns="http://www.w3.org/2000/svg" width="1599" height="978"><path d="M144 323 484 70l34-7 25 7 41 19 43 30 48 51 40 26 115 43 111 28 24 23 21 30-6 38-208 290-26 3-216-109-374-180-17-20Z" style="fill:none;stroke:#000;stroke-width:3px;stroke-linecap:butt;stroke-linejoin:miter;stroke-opacity:1"/><path id="a" d="m178 346 51-70" style="fill:none;stroke:#000;stroke-width:3px;stroke-linecap:butt;stroke-linejoin:miter;stroke-opacity:1"/><path id="b" d="m292 232-93 131" style="fill:none;stroke:#000;stroke-width:3px;stroke-linecap:butt;stroke-linejoin:miter;stroke-opacity:1"/><path id="c" d="m220 376 127-186" style="fill:none;stroke:#000;stroke-width:3px;stroke-linecap:butt;stroke-linejoin:miter;stroke-opacity:1"/><path id="d" d="M412 145 244 388" style="fill:none;stroke:#000;stroke-width:3px;stroke-linecap:butt;stroke-linejoin:miter;stroke-opacity:1"/><path id="e" d="M466 106 267 399" style="fill:none;stroke:#000;stroke-width:3px;stroke-linecap:butt;stroke-linejoin:miter;stroke-opacity:1"/><path id="f" d="M518 63 290 409" style="fill:none;stroke:#000;stroke-width:3px;stroke-linecap:butt;stroke-linejoin:miter;stroke-opacity:1"/><path id="g" d="M543 70 313 419" style="fill:none;stroke:#000;stroke-width:3px;stroke-linecap:butt;stroke-linejoin:miter;stroke-opacity:1"/><path id="h" d="M558 92 329 428l2-3" style="fill:none;stroke:#000;stroke-width:3px;stroke-linecap:butt;stroke-linejoin:miter;stroke-opacity:1"/><path id="i" d="m345 439 235-333" style="fill:none;stroke:#000;stroke-width:3px;stroke-linecap:butt;stroke-linejoin:miter;stroke-opacity:1"/><path id="j" d="M599 113 366 449" style="fill:none;stroke:#000;stroke-width:3px;stroke-linecap:butt;stroke-linejoin:miter;stroke-opacity:1"/><path id="k" d="m388 458 230-322" style="fill:none;stroke:#000;stroke-width:3px;stroke-linecap:butt;stroke-linejoin:miter;stroke-opacity:1"/><path id="l" d="M636 150 413 465" style="fill:none;stroke:#000;stroke-width:3px;stroke-linecap:butt;stroke-linejoin:miter;stroke-opacity:1"/><path id="m" d="m428 479 225-312" style="fill:none;stroke:#000;stroke-width:3px;stroke-linecap:butt;stroke-linejoin:miter;stroke-opacity:1"/><path id="n" d="M675 170 458 490" style="fill:none;stroke:#000;stroke-width:3px;stroke-linecap:butt;stroke-linejoin:miter;stroke-opacity:1"/><path id="o" d="m472 501 217-306" style="fill:none;stroke:#000;stroke-width:3px;stroke-linecap:butt;stroke-linejoin:miter;stroke-opacity:1"/><path id="p" d="M715 196 499 509" style="fill:none;stroke:#000;stroke-width:3px;stroke-linecap:butt;stroke-linejoin:miter;stroke-opacity:1"/><path id="q" d="m521 520 212-301" style="fill:none;stroke:#000;stroke-width:3px;stroke-linecap:butt;stroke-linejoin:miter;stroke-opacity:1"/><path id="r" d="M755 230 541 529" style="fill:none;stroke:#000;stroke-width:3px;stroke-linecap:butt;stroke-linejoin:miter;stroke-opacity:1"/><path id="s" d="m560 542 221-303" style="fill:none;stroke:#000;stroke-width:3px;stroke-linecap:butt;stroke-linejoin:miter;stroke-opacity:1"/><path id="t" d="M802 248 583 552" style="fill:none;stroke:#000;stroke-width:3px;stroke-linecap:butt;stroke-linejoin:miter;stroke-opacity:1"/><path id="u" d="M830 239 606 562" style="fill:none;stroke:#000;stroke-width:3px;stroke-linecap:butt;stroke-linejoin:miter;stroke-opacity:1"/><path id="v" d="M857 261 627 570" style="fill:none;stroke:#000;stroke-width:3px;stroke-linecap:butt;stroke-linejoin:miter;stroke-opacity:1"/><path id="w" d="m651 581 227-315" style="fill:none;stroke:#000;stroke-width:3px;stroke-linecap:butt;stroke-linejoin:miter;stroke-opacity:1"/><path id="x" d="M903 273 675 596" style="fill:none;stroke:#000;stroke-width:3px;stroke-linecap:butt;stroke-linejoin:miter;stroke-opacity:1"/><path id="y" d="m694 607 229-330" style="fill:none;stroke:#000;stroke-width:3px;stroke-linecap:butt;stroke-linejoin:miter;stroke-opacity:1"/><path id="z" d="M948 295 715 615" style="fill:none;stroke:#000;stroke-width:3px;stroke-linecap:butt;stroke-linejoin:miter;stroke-opacity:1"/><path id="A" d="m737 630 226-318" style="fill:none;stroke:#000;stroke-width:3px;stroke-linecap:butt;stroke-linejoin:miter;stroke-opacity:1"/><path id="B" d="m758 637 205-287h2" style="fill:none;stroke:#000;stroke-width:3px;stroke-linecap:butt;stroke-linejoin:miter;stroke-opacity:1"/><text fill="red" font-size="16">
<textPath href="#a" startOffset="50%" text-anchor="middle">row_28</textPath>
</text><text fill="red" font-size="16">
<textPath href="#b" startOffset="50%" text-anchor="middle">row_27</textPath>
</text><text fill="red" font-size="16">
<textPath href="#c" startOffset="50%" text-anchor="middle">row_26</textPath>
</text><text fill="red" font-size="16">
<textPath href="#d" startOffset="50%" text-anchor="middle">row_25</textPath>
</text><text fill="red" font-size="16">
<textPath href="#e" startOffset="50%" text-anchor="middle">row_24</textPath>
</text><text fill="red" font-size="16">
<textPath href="#f" startOffset="50%" text-anchor="middle">row_23</textPath>
</text><text fill="red" font-size="16">
<textPath href="#g" startOffset="50%" text-anchor="middle">row_22</textPath>
</text><text fill="red" font-size="16">
<textPath href="#h" startOffset="50%" text-anchor="middle">row_21</textPath>
</text><text fill="red" font-size="16">
<textPath href="#i" startOffset="50%" text-anchor="middle">row_20</textPath>
</text><text fill="red" font-size="16">
<textPath href="#j" startOffset="50%" text-anchor="middle">row_19</textPath>
</text><text fill="red" font-size="16">
<textPath href="#k" startOffset="50%" text-anchor="middle">row_18</textPath>
</text><text fill="red" font-size="16">
<textPath href="#l" startOffset="50%" text-anchor="middle">row_17</textPath>
</text><text fill="red" font-size="16">
<textPath href="#m" startOffset="50%" text-anchor="middle">row_16</textPath>
</text><text fill="red" font-size="16">
<textPath href="#n" startOffset="50%" text-anchor="middle">row_15</textPath>
</text><text fill="red" font-size="16">
<textPath href="#o" startOffset="50%" text-anchor="middle">row_14</textPath>
</text><text fill="red" font-size="16">
<textPath href="#p" startOffset="50%" text-anchor="middle">row_13</textPath>
</text><text fill="red" font-size="16">
<textPath href="#q" startOffset="50%" text-anchor="middle">row_12</textPath>
</text><text fill="red" font-size="16">
<textPath href="#r" startOffset="50%" text-anchor="middle">row_11</textPath>
</text><text fill="red" font-size="16">
<textPath href="#s" startOffset="50%" text-anchor="middle">row_10</textPath>
</text><text fill="red" font-size="16">
<textPath href="#t" startOffset="50%" text-anchor="middle">row_09</textPath>
</text><text fill="red" font-size="16">
<textPath href="#u" startOffset="50%" text-anchor="middle">row_08</textPath>
</text><text fill="red" font-size="16">
<textPath href="#v" startOffset="50%" text-anchor="middle">row_07</textPath>
</text><text fill="red" font-size="16">
<textPath href="#w" startOffset="50%" text-anchor="middle">row_06</textPath>
</text><text fill="red" font-size="16">
<textPath href="#x" startOffset="50%" text-anchor="middle">row_05</textPath>
</text><text fill="red" font-size="16">
<textPath href="#y" startOffset="50%" text-anchor="middle">row_04</textPath>
</text><text fill="red" font-size="16">
<textPath href="#z" startOffset="50%" text-anchor="middle">row_03</textPath>
</text><text fill="red" font-size="16">
<textPath href="#A" startOffset="50%" text-anchor="middle">row_02</textPath>
</text><text fill="red" font-size="16">
<textPath href="#B" startOffset="50%" text-anchor="middle">row_01</textPath>
</text><text x="204" y="311" fill="red" font-size="14" transform="rotate(90 204 311)">row_28</text><text x="100" y="181" fill="red" font-size="14" transform="rotate(90 100 181)">row_27</text><text x="283" y="283" fill="red" font-size="14" transform="rotate(90 283 283)">row_26</text><text x="328" y="267" fill="red" font-size="14" transform="rotate(90 328 267)">row_25</text><text x="367" y="253" fill="red" font-size="14" transform="rotate(90 367 253)">row_24</text><text x="404" y="236" fill="red" font-size="14" transform="rotate(90 404 236)">row_23</text><text x="428" y="244" fill="red" font-size="14" transform="rotate(90 428 244)">row_22</text><text x="164" y="214" fill="red" font-size="14" transform="rotate(90 164 214)">row_21</text><text x="463" y="272" fill="red" font-size="14" transform="rotate(90 463 272)">row_20</text><text x="482" y="281" fill="red" font-size="14" transform="rotate(90 482 281)">row_19</text><text x="503" y="297" fill="red" font-size="14" transform="rotate(90 503 297)">row_18</text><text x="525" y="308" fill="red" font-size="14" transform="rotate(90 525 308)">row_17</text><text x="541" y="323" fill="red" font-size="14" transform="rotate(90 541 323)">row_16</text><text x="566" y="330" fill="red" font-size="14" transform="rotate(90 566 330)">row_15</text><text x="581" y="348" fill="red" font-size="14" transform="rotate(90 581 348)">row_14</text><text x="607" y="352" fill="red" font-size="14" transform="rotate(90 607 352)">row_13</text><text x="627" y="370" fill="red" font-size="14" transform="rotate(90 627 370)">row_12</text><text x="648" y="380" fill="red" font-size="14" transform="rotate(90 648 380)">row_11</text><text x="670" y="391" fill="red" font-size="14" transform="rotate(90 670 391)">row_10</text><text x="692" y="400" fill="red" font-size="14" transform="rotate(90 692 400)">row_09</text><text x="718" y="400" fill="red" font-size="14" transform="rotate(90 718 400)">row_08</text><text x="742" y="415" fill="red" font-size="14" transform="rotate(90 742 415)">row_07</text><text x="764" y="424" fill="red" font-size="14" transform="rotate(90 764 424)">row_06</text><text x="789" y="435" fill="red" font-size="14" transform="rotate(90 789 435)">row_05</text><text x="809" y="442" fill="red" font-size="14" transform="rotate(90 809 442)">row_04</text><text x="832" y="455" fill="red" font-size="14" transform="rotate(90 832 455)">row_03</text><text x="850" y="471" fill="red" font-size="14" transform="rotate(90 850 471)">row_02</text><text x="860" y="493" fill="red" font-size="14" transform="rotate(90 860 493)">row_01</text></svg>