<?xml version="1.0" encoding="UTF-8" standalone="no"?>
<!-- Created with Inkscape (http://www.inkscape.org/) -->

<svg
   version="1.1"
   id="svg7470"
   width="1200"
   height="1200"
   viewBox="-3.7 0 1200 1200"
   xmlns:xlink="http://www.w3.org/1999/xlink"
   xmlns="http://www.w3.org/2000/svg"
   xmlns:svg="http://www.w3.org/2000/svg">
  <defs
     id="defs7474" />
  <g
     id="g7476"
     style="display:inline"> 
    <path
       style="fill:#ffe500;stroke-width:1.69186"
       d="m 638.47662,602.54767 c -1.15632,12.10331 -7.83717,24.80904 -4.68897,36.90045 8.82415,4.3284 20.17197,2.25308 29.85695,3.8012 32.43201,2.85685 64.96999,-0.83935 97.23764,-4.04572 0.68391,-11.0935 -1.28827,-24.75496 -8.00001,-34.34614 -37.74877,-0.94626 -75.75471,1.53261 -113.29532,-3.09954 z"
       id="path7597" />
    <path
       style="fill:#ffff00;stroke-width:1.69186"
       d="m 640.62119,673.47704 c -6.55171,1.5631 -0.31049,10.15024 1.39116,13.5382 4.32704,7.63932 10.98875,13.82831 15.74887,20.94011 21.19049,9.60359 45.42998,4.78927 67.8315,3.56326 15.19911,-1.34753 23.74461,-16.43182 28.73685,-28.90155 4.69996,-3.23528 0.13786,-7.87272 -4.4841,-6.48658 -36.35184,-2.01636 -72.97273,0.40371 -109.22428,-2.65344 z"
       id="path7636" />
    <path
       style="fill:#aac300;fill-opacity:1;stroke-width:1.69186"
       d="m 640.70711,536.42954 c -3.09748,1.25302 -12.92634,3.83403 -9.52664,8.01983 3.91781,0.93477 8.87081,-4.50784 10.59397,1.67864 4.84607,8.52071 -12.36019,12.80162 -17.4205,19.44658 -19.35732,13.61935 -36.22441,30.92223 -46.31184,52.56664 -2.85896,6.41064 -5.29633,16.93792 -13.6043,17.5762 -2.75411,-12.24041 3.8763,-25.14853 9.39777,-35.66459 9.73352,-19.37643 26.85335,-34.11124 43.56547,-47.54069 -1.76416,-4.55642 -10.46759,-1.08954 -14.67823,-2.52457 -15.01382,-1.27408 -21.75148,16.52741 -35.21851,19.42337 -9.71379,9.41446 -24.63545,8.26394 -36.36689,14.14532 -20.17951,5.4196 -41.69364,3.64128 -62.27664,1.67624 -9.47121,-1.07891 -19.50538,-7.14567 -28.81784,-5.28707 -0.15823,4.76015 0.48945,12.09925 3.62495,14.73771 1.79392,-3.05133 -0.67695,-13.97364 6.14952,-9.94299 6.1456,2.03844 13.54162,4.35098 13.72656,12.00165 4.01801,9.81172 9.25544,19.09584 11.68113,29.37959 4.91805,5.21075 4.55263,12.59524 9.33828,17.76125 5.35943,12.27447 12.76024,23.17274 19.93226,34.36597 1.54988,6.17006 8.03584,8.32844 10.44846,14.41725 19.33508,25.92058 43.04175,49.79641 71.72915,65.18621 19.14589,10.4899 41.77431,8.10212 62.64518,6.27178 10.01872,-3.28314 20.85859,-8.67688 31.44156,-6.38412 7.06121,3.79999 -4.09246,6.58402 -6.73772,8.41965 -5.01638,3.5956 -13.15936,5.64084 -15.69599,11.41678 6.24751,2.05092 12.8999,-4.87927 18.75589,-7.08138 8.82254,-5.55594 12.34172,10.80882 20.44114,9.16315 1.18822,-6.77581 -6.73206,-12.571 -9.25238,-18.56422 -3.05755,-6.04635 -8.03755,-10.8735 -14.99545,-10.63693 -13.10444,-6.49284 -25.51421,-15.23057 -35.50599,-25.94299 -9.71994,-11.30502 -17.64676,-23.89785 -22.43371,-38.14622 -8.71753,-23.47018 -10.6635,-49.15423 -5.23419,-73.58612 4.24252,-13.84894 10.94737,-26.62772 16.0066,-40.16522 5.70533,-8.95218 17.60644,-13.43413 23.90417,-21.6869 -3.32019,-4.37972 -5.04664,-11.35196 -9.30524,-14.4998 z m -37.50847,85.61421 c 0.12355,9.40782 -0.3971,19.65138 -7.44486,26.72614 -6.06717,13.66974 -6.86113,28.91743 -10.56753,43.15572 -3.67047,4.21054 -8.13179,-4.08757 -7.69269,-7.76208 -1.05219,-16.19987 -1.93463,-34.086 9.31516,-47.3259 4.0084,-6.41935 9.5133,-12.21513 16.31062,-15.64312 z"
       id="path7749" />
    <path
       style="fill:#aac300;fill-opacity:1;stroke-width:1.69186"
       d="m 655.69265,272.27095 c -5.23838,2.55658 2.82436,8.22388 4.76498,10.65344 16.16962,20.75393 33.4242,44.35709 33.89012,71.63651 -10.02704,-3.70344 -18.88105,-10.55277 -21.22237,-21.48186 -0.94813,-2.03628 -4.77354,-13.14808 -7.1659,-6.91962 -0.5048,7.86368 8.16796,14.73876 6.83024,21.99091 -8.4437,2.16053 -16.66364,-9.0285 -24.32053,-4.99628 3.11821,6.60519 13.13045,7.49832 18.81206,11.73399 2.64243,0.18619 8.33318,6.36676 2.20736,4.83437 -15.05492,-1.92752 -30.12938,-3.63425 -44.59976,-8.57497 -17.93621,-3.42912 -36.19934,-7.43632 -54.39074,-3.31433 -23.56137,3.2397 -49.06029,8.93685 -66.70632,25.85377 0.94254,4.86627 7.66565,0.22968 9.63569,-1.8736 4.06292,-2.21195 9.36925,-6.62788 13.26063,-7.26642 1.83324,3.63807 -2.16251,11.36975 -4.09748,4.8608 -6.01736,-2.33467 -5.88433,7.7803 -8.57827,11.04668 -4.5336,1.74828 -6.03654,6.13817 -7.12763,10.46509 -3.63198,1.31941 -8.022,2.86876 -7.48451,7.79513 -3.50837,1.4991 -3.10295,5.92998 -6.04379,8.31722 -4.4717,7.79043 -0.77107,13.24655 8.64887,11.5466 16.74148,1.61949 31.39974,11.02015 47.08017,16.46496 6.77711,2.80246 13.87701,3.44564 19.59851,8.19496 15.3139,4.34721 28.99708,13.29119 44.69558,16.58158 1.92513,2.32729 10.43405,6.67998 8.74019,0.77323 -8.92773,-7.24214 -14.39024,-17.26248 -21.19785,-26.12804 -5.91069,-7.32553 -12.80202,-13.79185 -20.61958,-18.75588 -0.7521,-2.87624 -1.29124,-5.88704 -3.97522,-7.25651 1.42226,-5.92239 11.67414,-3.75447 15.15407,-0.1487 9.69926,7.17567 18.05162,16.03979 23.54729,26.77571 6.70044,9.50401 18.16041,15.34065 24.38332,24.77984 -1.02532,2.63598 -4.56315,6.50775 -0.74019,8.5915 -6.3868,-1.40984 -4.76144,6.82853 0.61131,5.28707 8.53537,-1.15474 12.76015,-11.69603 6.03057,-17.80091 -8.01223,-14.98657 -6.57162,-36.86118 8.99132,-46.54936 6.16817,-3.91391 12.29151,-12.30748 19.20859,-5.22098 5.08745,3.68229 14.27638,2.20439 14.07352,-5.33333 -0.8339,-8.02032 6.75392,-0.10605 10.64684,-1.45725 7.62898,-0.46923 11.38022,-9.72146 19.60512,-9.21933 10.89518,-3.43639 21.32835,-12.6742 33.51673,-9.54647 8.48444,0.50964 10.04116,8.81704 10.20735,15.74556 3.93634,1.02414 2.06827,-9.16035 1.75135,-12.92028 -3.63979,-9.33197 -16.60326,-7.25678 -24.64437,-7.01528 -6.99514,1.38447 -14.37445,4.82356 -19.33085,9.48037 -3.91416,-9.00193 5.29316,-15.09642 12.22305,-18.50805 3.56944,-0.64069 5.14281,-6.71967 0.26765,-4.88724 -5.18661,1.30518 -9.1366,5.64608 -14.08012,7.19703 0.23223,-4.1689 9.95739,-6.14293 6.08343,-10.19413 -10.04372,2.00619 -15.50308,18.75758 -27.2912,12.83106 -4.0715,-0.50651 -12.2881,-7.71919 -5.95786,-10.30649 3.88232,0.81568 10.30534,0.6999 9.14002,-5.07228 -1.45374,-20.34368 -10.77438,-39.67794 -21.64395,-56.67079 -7.49177,-8.36596 -12.81458,-19.45753 -21.9083,-26.05205 z m -6.81041,90.56753 c 5.8145,-0.94156 9.09934,3.6315 13.16151,6.09004 5.79224,2.13203 13.43544,6.74639 15.26311,12.86741 -4.06242,-0.69075 -8.74528,-4.91945 -13.69682,-5.11524 -11.06398,-3.22858 -29.202,-3.97792 -33.13341,9.81412 -1.82621,8.28037 6.69976,14.18983 14.23213,13.34325 4.48911,1.72325 -4.17293,4.33666 -5.48203,4.07435 -15.12847,3.57046 -25.5176,-20.20146 -13.30029,-29.80256 6.22654,-5.78125 14.40689,-10.52208 22.9558,-11.27137 z m 7.01859,18.03882 c 11.88957,-0.9363 23.23907,8.12451 27.68773,18.2404 -8.31862,5.01368 -15.61011,-7.05723 -24.34366,-6.40397 -7.38376,-2.13043 -17.58819,1.67712 -23.37877,-3.3672 -1.15335,-9.59262 14.67798,-7.38249 20.0347,-8.46923 z"
       id="path8104" />
    <path
       style="fill:#aac300;fill-opacity:1;stroke-width:1.69186"
       d="m 811.96195,345.8835 c -20.2005,0.64437 -40.20695,5.30144 -59.0665,12.07435 -5.28089,1.62964 -13.96049,-2.08613 -17.45064,2.6171 6.31363,3.55218 15.44597,-0.0858 21.7563,5.07889 8.8533,4.55233 18.49838,12.74482 15.4779,23.84139 -1.52098,7.72469 -10.1807,13.94805 -17.77117,14.5097 -5.07321,-0.48218 -12.76772,-7.35993 -7.12102,-11.6646 -4.94663,-2.95481 -13.11039,-0.55917 -18.2404,2.17101 -3.27478,1.50864 -6.13155,6.97148 -0.74679,7.1838 15.41438,7.9973 30.11157,24.51322 26.51135,42.95085 -1.61215,6.58026 -1.9187,13.65544 -7.76538,18.11152 -1.66536,5.6807 6.60777,11.79899 11.88269,10.68319 5.02764,-4.19112 12.47855,-4.75571 17.34159,-9.91987 8.54415,-8.00183 21.0248,-6.45574 30.74763,-12.40148 7.4396,-1.41576 13.29457,-6.47534 20.90706,-7.48451 32.51137,-16.40865 67.50858,-27.6439 100.82775,-41.94961 4.76674,-0.55802 12.04967,-4.42488 7.73896,-10.0157 -4.23619,-6.39889 -8.28592,-15.07286 -15.7753,-17.85047 -2.75077,4.4312 5.42797,9.16587 6.77398,13.32103 1.08095,2.8627 8.01785,8.16476 1.86377,9.25476 -8.25514,6.21891 -13.90401,-4.13169 -18.9112,-9.1235 -2.92653,-4.93043 -6.2435,-8.74345 -11.83974,-10.89467 -24.4735,-19.97735 -55.35691,-31.67082 -87.14084,-30.49318 z m 4.24288,59.47955 c 7.44952,0.78402 -0.64889,8.53577 -2.8385,11.20529 -15.70821,5.93357 -21.11562,24.05336 -31.04833,36.21974 -7.41164,6.42492 -15.87021,13.8992 -25.78108,15.43824 -4.45022,-0.88189 -4.36698,-5.61999 -0.64105,-7.64312 1.38473,-5.06247 7.80236,-4.99085 10.377,-9.79997 14.73017,-15.55685 28.55568,-32.81712 46.29049,-44.98069 1.17695,-0.35259 2.41346,-0.51427 3.64147,-0.43949 z"
       id="path8143" />
    <path
       style="fill:#aac300;fill-opacity:1;stroke-width:1.69186"
       d="m 795.7009,216.42295 c -3.83495,0.70426 -2.5718,6.41405 -7.12433,6.71458 -7.58716,2.78463 -16.91033,6.95637 -24.18835,1.80752 -5.38489,-0.41682 -2.32217,7.12277 -7.4052,8.05618 -20.27723,8.92742 -33.76545,28.59246 -37.64395,50.07186 -1.19273,8.72077 -5.49486,19.95724 0.48245,27.59521 6.18171,2.92614 5.16324,-6.14154 7.67947,-9.06072 7.98872,-12.05709 16.90276,-25.16744 29.74308,-32.42957 4.91949,-0.88725 5.73402,-7.65544 11.1425,-7.95043 2.95115,-1.04092 10.32425,-9.76367 10.51797,-2.17762 -0.0652,10.3988 -10.36202,16.80083 -17.55308,22.45684 -1.52624,4.72566 -7.25204,3.65702 -8.80958,8.02974 -8.1799,5.68086 -18.51597,11.37651 -22.59232,20.68236 6.51289,4.42555 16.21808,0.40731 23.57706,-0.41926 5.6633,-2.30427 11.78627,-3.07801 17.60923,-2.51837 0.58796,-2.70379 0.71848,-5.945 4.65923,-6.75093 22.75975,-14.97264 33.26497,-43.86435 30.45496,-70.38358 0.73516,-4.64088 -0.98639,-9.37619 -6.09148,-9.20006 -1.14935,-1.87687 -1.12954,-4.88701 -4.45766,-4.52375 z"
       id="path8182" />
    <path
       style="fill:#aac300;fill-opacity:1;stroke-width:1.69186"
       d="m 812.88719,565.27052 c -3.72256,3.82581 3.27646,11.19752 7.66295,11.95208 10.25491,13.42516 19.75231,28.80211 22.22552,46.11318 0.81905,10.07914 8.96132,23.9431 -1.07724,31.73564 -12.52079,5.23498 -22.32868,-9.43759 -27.40685,-18.93432 -8.37587,-13.99394 -13.69191,-30.67671 -25.27551,-42.33623 -3.01331,-3.43128 -5.24669,-9.48161 -9.36773,-12.8861 -4.19232,-7.75586 -9.2207,-7.37562 -7.24358,1.31403 2.4586,9.09138 7.39928,16.64213 10.10491,25.75464 5.82789,16.77378 3.22839,35.54695 3.03268,53.11401 -3.5135,20.179 -12.21433,39.71697 -23.88822,56.4633 -7.43152,9.71729 -15.3802,19.4008 -26.282,25.11743 -1.77022,2.5336 -6.84247,1.21897 -7.95705,4.87734 -4.77502,-1.06132 -7.27975,5.91944 -1.11028,5.10863 9.65799,0.59968 17.27489,8.66053 27.20859,9.58943 13.78057,4.33252 29.44495,3.27147 43.30442,-0.48246 6.84923,-1.5569 12.93825,-5.80134 18.63362,-8.79636 19.62509,-9.66802 33.52119,-28.02115 49.27042,-42.74634 10.68606,-9.43665 16.65854,-22.31942 25.75642,-33.18922 4.51716,-5.6207 8.04483,-13.1619 11.5192,-18.79554 4.6395,-3.74765 5.01959,-10.86317 9.54648,-14.74762 3.55788,-8.42 8.89721,-15.81007 11.2978,-24.7468 4.92841,-9.08773 7.15257,-19.32345 9.86701,-29.02272 5.09565,-2.66422 12.39215,-6.84798 18.01238,-5.20446 -0.19838,9.83845 -8.50137,18.88136 -7.11442,28.68236 5.15633,0.0235 5.31531,-9.01461 7.48122,-12.60635 1.54513,-7.41799 6.3615,-15.49925 4.9368,-22.9492 -9.95896,8.3e-4 -19.06847,7.2623 -29.26481,7.8387 -20.63624,2.59623 -41.98639,3.7625 -62.50553,-0.12288 -17.92641,-4.37009 -33.79731,-14.37818 -51.10615,-20.114 z m -22.49649,56.68731 c 18.53808,11.62664 27.91063,34.29578 25.74804,55.60347 -0.25958,5.81787 1.15999,18.20116 -8.40645,15.52746 -4.35637,-13.14361 -5.69104,-27.57906 -11.13661,-40.61081 -2.88322,-10.1041 -6.37648,-20.2971 -6.80308,-30.86378 z"
       id="path8221" />
    <path
       style="fill:#000000;fill-opacity:1;stroke-width:1.69186"
       d="m 703.66291,958.23869 c 2.11337,12.78906 -1.89951,30.11341 9.13341,39.66294 12.48183,7.01637 30.04597,-2.86477 28.66254,-17.61255 -1.41158,-7.16634 5.40703,-21.87156 -3.46964,-22.85006 -12.71139,-4.03994 -9.7271,8.75549 -9.82074,16.93184 0.68025,4.57589 -0.9846,17.72663 -7.90087,11.02685 -4.37881,-7.80668 -0.32044,-18.92415 -5.37959,-25.8703 -3.48756,-0.64924 -8.29419,-3.28965 -11.22511,-1.28872 z"
       id="path8954" />
    <path
       style="fill:#000000;fill-opacity:1;stroke-width:1.69186"
       d="m 753.56955,957.99416 c 0.25855,14.28188 -0.38623,28.47466 -2.16769,42.64024 4.31486,2.1876 16.52462,2.8944 14.32135,-5.80588 -1.61707,-8.22048 5.33625,-2.9461 6.82693,0.80628 1.68451,6.5184 16.61062,9.4601 14.83354,0.23792 -0.95076,-4.63629 -10.99578,-9.23017 -3.03676,-12.83106 6.77897,-6.97824 4.13111,-23.26547 -7.18051,-24.04296 -7.60676,-0.8797 -16.61651,-2.82846 -23.59686,-1.00454 z"
       id="path9030" />
    <path
       style="fill:#000000;fill-opacity:1;stroke-width:1.69186"
       d="m 834.38244,957.77276 c -8.84481,3.40356 -9.74741,15.7845 -14.33817,23.0999 -1.79289,6.57583 -7.46994,13.64288 -6.67133,20.24744 5.31665,2.1606 15.04069,2.6705 13.48203,-5.72322 3.7378,-2.34518 10.88755,-4.69205 14.62866,-2.22057 -0.41089,6.80666 5.63113,10.32099 11.734,8.30069 8.28349,-2.44293 0.8979,-12.64721 -1.10368,-17.32505 -5.31411,-8.07601 -5.75159,-20.28045 -14.09335,-25.89013 -1.17607,-0.34097 -2.41334,-0.51331 -3.63816,-0.48906 z"
       id="path9069" />
    <path
       style="fill:#000000;fill-opacity:1;stroke-width:1.69186"
       d="m 865.65546,959.16062 c 0.13984,13.34192 -5.49062,29.26566 2.37588,41.31188 2.76267,2.9923 10.65631,4.2366 9.05411,-2.07851 -0.1586,-3.99408 -3.81541,-12.4155 3.8166,-10.26352 11.89094,0.93229 23.23545,-12.2624 16.56506,-23.30938 -7.65422,-8.29855 -20.84452,-4.9442 -30.76415,-6.57579 z"
       id="path9108" />
    <path
       style="fill:#000000;fill-opacity:1;stroke-width:1.69186"
       d="m 907.99829,958.42704 c -1.60746,14.23375 -3.47355,29.62002 -1.15985,43.31106 5.10873,0.5544 14.82682,1.2111 12.84428,-6.90958 -1.66937,-7.9005 8.35344,-3.47305 12.17348,-7.12102 9.6889,-4.23419 14.48195,-21.50335 4.13053,-27.23833 -8.79328,-2.44702 -19.47246,-3.18495 -27.98844,-2.04213 z"
       id="path9147" />
    <path
       style="fill:#000000;fill-opacity:1;stroke-width:1.69186"
       d="m 969.74468,986.40886 c -3.52374,-1.53378 -7.87271,3.115 -2.41223,2.93433 2.19927,0.29028 12.41075,0.68575 7.7786,-2.62702 -1.769,-0.3094 -3.57505,-0.35059 -5.36637,-0.30731 z"
       id="path9186" />
    <path
       style="fill:#000000;fill-opacity:1;stroke-width:1.69186"
       d="m 951.64967,956.06438 c -3.30321,6.84084 -0.76345,16.7873 -1.89506,24.65029 0.97582,6.68599 -2.30165,15.26608 1.0987,21.06963 8.68429,0.6339 17.49714,-2.52729 26.13465,-0.8591 3.92268,-3.08588 2.8984,-14.99636 -4.30565,-11.61836 -4.21764,0.5666 -12.39762,0.30868 -10.62041,-6.63527 -1.63193,-7.53828 3.15953,-18.58289 -3.65138,-24.21479 -2.13784,-1.00025 -4.36832,-2.23545 -6.76085,-2.3924 z"
       id="path9225" />
    <path
       style="fill:#000000;fill-opacity:1;stroke-width:1.69186"
       d="m 987.04662,958.31469 c 0.63781,13.73392 -1.27623,28.49469 0.95828,41.58612 10.49726,-0.46898 21.6281,2.40449 31.8546,0.82939 4.1273,-6.04229 -2.9254,-14.57565 -9.9529,-12.80461 -2.6039,-0.318 -9.2376,0.59388 -9.8769,-1.52003 4.5043,-2.54062 17.0132,-1.82401 13.8191,-10.21396 -3.0037,-4.14622 -15.79799,1.23508 -12.1603,-6.30814 5.9254,-1.88091 16.1875,3.74713 18.6601,-2.13796 4.1098,-14.43027 -13.0841,-8.51327 -21.69442,-10.10046 -3.59828,0.66154 -8.75092,-1.78006 -11.60756,0.66965 z"
       id="path9264" />
    <path
       style="fill:#cccccc;fill-opacity:1;stroke-width:1.69186"
       d="m 1058.8517,977.89007 c -4.501,0.50534 -17.5884,-1.14905 -15.1839,6.95911 4.7192,4.77245 13.2716,2.97081 19.4102,2.75258 4.35,-2.7793 2.2976,-12.04699 -4.2263,-9.71169 z"
       id="path9340" />
    <path
       style="fill:#cccccc;fill-opacity:1;stroke-width:1.69186"
       d="m 399.01195,413.28044 c -23.21381,-1.16693 -46.32752,17.31286 -46.09004,41.39446 -0.0883,31.01094 21.98868,59.4193 49.21272,72.39653 14.98516,1.89883 30.63105,-0.83041 42.45391,-10.77603 9.76918,-7.69834 20.99292,-13.59628 29.9261,-22.18886 -1.5628,-8.00999 -11.42263,-12.52044 -15.31268,-19.63486 -11.29864,-14.83316 -16.93838,-33.42064 -19.15903,-51.65138 -6.53757,-7.36502 -18.35232,-6.10435 -27.22511,-8.61793 -4.57167,-0.63579 -9.18841,-0.99116 -13.80587,-0.92193 z"
       id="path9453" />
    <path
       style="fill:#cccccc;fill-opacity:1;stroke-width:1.69186"
       d="m 456.65425,428.08093 c -6.01218,2.74153 -0.009,11.11268 0.92854,15.59356 6.87158,19.70941 21.79572,35.82061 39.26311,46.71458 30.93048,13.97504 65.47288,10.07452 98.38439,9.98666 9.13154,-1.34411 20.44278,0.88776 28.22114,-4.61698 -2.68045,-7.89381 -13.93842,-7.43897 -20.29905,-10.79554 -16.65603,-6.90375 -32.9957,-14.49723 -50.02863,-20.21505 -31.37687,-12.86104 -63.59115,-23.89157 -94.88008,-36.60444 -0.52419,-0.0855 -1.06016,-0.11761 -1.58942,-0.0628 z"
       id="path9492" />
    <path
       style="fill:#cccccc;fill-opacity:1;stroke-width:1.69186"
       d="m 490.3395,505.41096 c -20.18955,4.79324 -36.25369,19.33088 -53.10202,30.48988 -5.33395,-0.4356 -10.33901,9.50014 -2.71623,9.48038 17.49728,7.39879 35.68292,14.55859 55.09783,12.93414 24.47835,1.3293 49.47569,-1.94642 71.27308,-13.77347 7.071,-4.24268 15.52098,-4.4582 21.72656,-10.19744 8.9115,-4.31708 17.67312,-9.38019 25.71169,-14.79388 3.73526,0.28323 9.67092,-7.45578 2.92771,-7.07476 -37.06698,2.67099 -75.52647,7.28029 -111.32259,-5.50186 -3.15273,-0.67956 -6.34125,-1.65476 -9.59603,-1.56299 z"
       id="path9531" />
    <path
       style="fill:#cccccc;fill-opacity:1;stroke-width:1.69186"
       d="m 938.8814,427.99502 c -28.60011,8.4158 -55.79386,21.26091 -83.72921,31.12896 -26.21915,12.15276 -54.31769,20.38006 -79.73712,34.20932 -0.15849,5.13203 9.78841,2.89887 12.96903,4.93362 23.87935,3.89284 48.39776,2.30576 72.51537,2.02153 16.63846,-1.90096 33.77843,-5.95824 48.11658,-14.33061 16.63898,-14.4536 29.00043,-35.03838 31.82156,-56.94506 -0.24009,-0.84985 -1.16372,-1.14617 -1.95621,-1.01776 z"
       id="path9570" />
    <path
       style="fill:#cccccc;fill-opacity:1;stroke-width:1.69186"
       d="m 902.43696,504.68729 c -18.16404,4.44019 -36.01316,10.5193 -54.9558,10.71954 -22.43792,2.08777 -44.7027,-2.20625 -67.01694,-3.34738 -5.163,2.46206 3.91375,6.44238 5.89178,7.56051 10.12043,4.22846 18.54253,11.67853 28.76828,15.19372 14.99492,10.20393 32.93513,14.53197 49.16646,21.97439 21.01568,4.74747 43.2826,3.00033 64.33044,-0.71045 11.28108,-5.20494 25.5648,-5.57869 34.89796,-14.08013 -1.69583,-7.149 -12.1509,-8.24077 -17.11028,-13.07228 -2.28262,-2.56282 -5.17797,-4.54066 -8.17843,-5.37299 -5.77788,-7.44014 -15.36935,-9.9146 -22.47666,-15.5539 -4.17809,-1.82344 -8.6965,-3.42235 -13.31681,-3.31103 z"
       id="path9609" />
    <path
       style="fill:#cccccc;fill-opacity:1;stroke-width:1.69186"
       d="m 988.41795,412.82773 c -10.798,1.40396 -22.46762,2.80572 -32.20157,7.68278 -3.5763,8.2671 -3.39473,18.40137 -6.7202,27.03512 -4.04165,17.96619 -15.65632,32.53581 -28.73952,44.88887 7.41877,9.26712 19.7281,15.53764 28.99958,23.74226 11.03023,8.85199 25.13818,11.619 38.9389,9.51084 10.06827,0.55201 17.50756,-6.78869 24.54796,-12.79649 19.3236,-17.16551 32.1513,-44.13946 24.49,-70.0229 -5.5556,-21.66783 -29.2949,-29.7413 -49.31515,-30.04048 z"
       id="path9648" />
    <path
       style="fill:#000000;stroke-width:1.69186"
       d="m 400.14867,398.47003 c -8.65249,-0.94546 -16.57438,1.94975 -24.01652,5.73978 -26.69253,13.44769 -42.36808,48.8042 -29.85792,77.08417 6.15065,17.62181 17.38195,32.48891 31.40884,44.64563 10.77931,10.07363 24.38851,16.52022 36.25825,25.31686 20.78585,7.95572 40.94778,18.3507 63.08467,22.5791 26.14379,7.3288 53.52316,-0.0228 77.6142,-10.29988 27.25992,-9.9541 52.01515,-25.98267 78.66502,-37.54481 0.76915,-13.54232 0.34389,-27.93282 2.03551,-41.43412 -8.36678,-8.1211 -21.3373,-10.38346 -31.46883,-16.09182 -28.83944,-11.18404 -57.16979,-23.7084 -86.28069,-34.21691 -20.05371,-7.79928 -40.49656,-14.70187 -60.16041,-23.27408 -16.62601,-6.68051 -33.93032,-13.73042 -52.40479,-12.52375 -1.62578,0.007 -3.25155,0.0132 -4.87733,0.0198 z m 1.72491,14.96902 c 12.98146,1.07778 27.36083,1.14693 39.19702,7.09789 7.31278,18.5784 9.63246,39.84589 23.53078,55.35233 3.99689,6.17793 12.84929,10.9965 13.70673,18.41553 -10.1784,9.75859 -23.11366,16.74403 -34.62701,25.00785 -14.7926,9.43271 -36.19846,12.75921 -50.1677,0.26435 -24.97274,-16.73472 -43.41601,-49.30016 -33.63899,-79.39528 5.95008,-17.36686 24.51397,-26.72057 41.99917,-26.74267 z m 56.27757,14.81702 c 35.59111,10.2165 69.73736,25.73898 104.5321,38.5742 20.1934,8.14663 40.55128,16.13678 60.61286,24.45429 3.54573,1.40598 4.64434,6.29323 -0.32382,6.40727 -31.01311,2.53539 -62.53615,3.50677 -93.58777,0.98472 -24.74539,-2.59663 -47.33886,-17.04364 -59.69013,-38.60828 -5.49257,-9.71147 -11.63633,-20.98786 -12.43544,-31.79238 l 0.34366,-0.033 z m 54.42048,81.20941 c 33.96712,9.43257 69.58539,4.42383 104.08922,4.01817 2.20125,3.42999 -5.54461,6.19081 -7.83478,8.36679 -23.77935,13.9988 -48.91377,26.6846 -75.5985,33.95291 -21.75553,1.69915 -44.60758,3.44594 -66.24701,-0.0562 -10.71255,-3.40372 -22.0352,-6.87259 -31.82156,-12.038 -0.68333,-8.08726 10.59615,-9.89102 15.09789,-14.61215 13.48483,-9.93769 28.53182,-19.65524 44.19501,-24.34408 6.03991,1.57085 12.07982,3.14169 18.11973,4.71253 z"
       id="path10285"
       transform="translate(-3.7)" />
    <path
       style="fill:#000000;stroke-width:1.69186"
       d="m 587.67778,331.54232 c -22.58077,0.19828 -45.0861,5.08615 -64.9781,15.97356 -10.31806,3.58341 -18.94495,10.87499 -27.9687,16.76503 -9.6111,9.3459 -21.33523,17.9673 -27.91234,29.63563 1.80021,6.05253 10.56437,9.96357 14.77736,3.65138 6.08397,-5.82363 9.78205,-13.49736 17.4936,-17.92317 20.05175,-17.86604 45.45294,-28.37371 72.04073,-31.14087 28.54821,-6.69116 56.84457,3.66764 84.75397,8.68404 5.34026,-0.3075 13.49616,4.08914 17.66543,0.18835 -9.80221,-7.92382 -22.94851,-12.21991 -34.53778,-17.53656 -16.38419,-5.99811 -33.9142,-8.62617 -51.33417,-8.29739 z"
       id="path10363"
       transform="translate(-3.7)" />
    <path
       style="fill:#000000;stroke-width:1.69186"
       d="m 811.05323,206.29491 c -22.81179,2.25729 -46.35843,6.91661 -66.50474,18.20735 -1.67046,3.01078 -3.64773,4.11111 -6.67163,5.80586 -14.30612,12.01504 -26.41231,27.34907 -29.49855,46.2784 -2.40285,12.57782 -5.18931,26.58047 -1.43081,38.98223 4.32211,1.13002 7.86847,3.92786 7.81924,9.05538 0.39939,9.63335 12.60362,4.13319 19.17787,5.35189 5.59209,-0.4637 14.65605,0.60363 16.34696,-6.19248 2.40343,-0.0606 8.37206,-1.9446 3.28129,-3.61173 -4.888,-1.2404 0.0518,-4.89173 2.85501,-3.79678 3.92333,-2.32779 7.88529,-4.13403 13.01611,-3.19537 4.39144,-0.9916 5.19252,1.86238 6.4304,4.75506 4.99603,1.12569 7.77887,-4.01625 8.1487,-7.86122 10.59723,2.89139 16.78873,-9.51261 23.37877,-15.57373 13.17052,-17.01137 21.27635,-38.02522 20.0413,-59.77033 1.48913,-6.04692 -4.55412,-8.74787 -3.35068,-14.67163 1.11046,-6.30311 -1.13163,-15.28711 -9.31516,-13.78603 -1.24158,-0.0455 -2.48277,0.002 -3.72408,0.0231 z m -11.23502,10.66666 c 9.27251,3.45922 11.92514,13.61493 10.55431,22.55266 -0.78268,4.02116 2.41884,5.4159 4.71871,7.15077 2.38103,6.18267 -6.45107,0.36939 -6.33787,6.209 -2.42712,20.84335 -15.92128,39.14685 -32.80628,50.90789 -1.67037,6.91955 -10.65519,2.6727 -15.63982,5.26394 -8.08661,1.44912 -18.5029,5.46149 -25.90004,0.90541 4.47099,-11.01045 17.32308,-16.4098 25.93243,-24.04977 7.80938,-7.61729 19.23358,-14.35978 22.09731,-25.43391 -0.64423,-7.08398 -9.38315,0.0956 -12.06187,2.01258 -18.93641,10.79876 -32.82696,28.17171 -43.25411,46.93248 -5.44946,4.94744 -6.50827,-5.39508 -5.94135,-8.75341 -1.23881,-9.36099 4.5132,-18.80538 2.78232,-27.77364 -4.0213,-0.0113 -4.28113,-7.50071 0.60471,-4.88063 7.50879,-4.03448 8.43536,-14.81332 15.22677,-20.12061 3.37779,-2.61332 4.6153,-7.25021 5.66377,-10.59067 7.82868,-0.1663 17.60317,-3.97212 20.04792,-11.62494 11.71874,1.59859 25.88044,0.94164 33.91325,-8.72037 l 0.19827,-0.003 z"
       id="path10439"
       transform="translate(-3.7)" />
    <path
       style="fill:#000000;stroke-width:1.69186"
       d="m 811.26141,331.37379 c -28.41837,1.2728 -55.96772,12.1209 -80.20156,26.51797 -3.60797,2.25641 -0.42701,5.99432 2.8418,3.42338 10.99588,-5.28833 23.53329,-1.56732 34.57083,-7.05494 38.60069,-12.58311 82.90326,-11.58999 117.82238,10.73276 14.4252,7.93576 26.12656,19.37954 37.62082,30.87319 4.36611,4.42423 14.72591,-0.2818 9.3482,-6.51632 -12.1558,-17.08909 -29.06309,-31.19658 -47.56712,-40.91202 -17.84933,-9.3173 -38.0953,-15.84852 -58.56429,-16.73909 -5.28196,-0.34031 -10.57943,-0.44429 -15.87106,-0.32493 z"
       id="path10478"
       transform="translate(-3.7)" />
    <path
       style="fill:#000000;stroke-width:1.69186"
       d="m 994.46834,398.44029 c -25.9489,-0.084 -48.90924,14.09749 -72.92854,21.97769 -7.64476,3.63605 -16.34354,4.98926 -23.49442,9.13342 -14.15889,2.34158 -26.25422,11.87327 -40.23131,14.72119 -9.02174,5.49321 -20.38244,7.22259 -29.80284,12.45787 -17.831,8.143 -35.88525,15.72668 -53.31322,24.50867 -11.00426,1.38173 -3.68177,15.88864 -5.8356,23.35894 1.3646,6.62239 -2.61324,16.46054 2.78232,21.57455 5.79751,1.43345 10.30122,7.33206 16.56322,9.12342 35.84519,17.17471 71.57902,40.24838 112.52258,41.38344 46.97834,-5.63579 91.65566,-26.36139 128.43417,-55.80187 20.3831,-20.47169 34.5143,-50.11698 28.4478,-79.45674 -3.7429,-10.00306 -8.3605,-19.92452 -17.3482,-26.51466 -12.3511,-11.98411 -28.51,-18.31917 -45.79596,-16.46592 z m -1.26229,15.49773 c 19.26915,-0.96625 41.61185,7.69664 47.61335,27.91573 9.5899,28.81839 -7.5258,59.16273 -30.2156,76.66253 -10.3958,9.28595 -25.97337,7.21287 -38.51299,6.47336 -15.46608,-4.09291 -27.30296,-16.22609 -40.31809,-25.00458 -4.68974,-2.32959 -8.92115,-7.45266 -3.39607,-11.48612 18.14002,-17.39782 26.95875,-41.87907 30.63033,-66.31064 3.08968,-5.56614 13.33211,-5.11114 19.58693,-7.10365 4.87688,-0.7821 9.74088,-1.15174 14.61214,-1.14663 z m -50.45848,14.26517 c 3.24352,8.6949 -3.40178,19.09274 -6.40061,27.53335 -9.05478,18.61776 -25.17535,34.92814 -45.85938,39.61756 -24.17389,7.1482 -49.90455,3.46121 -74.76851,4.59135 -12.36628,-0.0216 -25.99873,-0.52751 -37.09541,-5.72987 20.03108,-12.44374 43.332,-18.80759 64.77549,-28.53062 32.40415,-12.49763 64.31015,-26.67976 97.38229,-37.23724 0.64786,-0.11427 1.30386,-0.26924 1.96613,-0.24453 z m -33.91987,77.1549 c 16.98387,1.38888 28.70685,16.39424 43.13258,24.0033 4.69262,3.92289 11.95251,6.81454 15.00537,11.93226 -10.42219,9.28797 -25.66532,11.04608 -38.57361,15.21178 -27.96878,5.99637 -57.96148,4.06687 -83.72183,-9.07863 -20.45268,-9.71825 -41.78371,-18.69177 -60.11181,-32.06624 -3.69238,-4.15669 2.18954,-4.89613 5.07228,-3.1458 33.96155,4.57046 69.07245,6.03571 102.23544,-4.01157 5.57614,-1.28619 11.20056,-2.7839 16.96158,-2.8451 z"
       id="path10517"
       transform="translate(-3.7)" />
    <path
       style="fill:#000000;stroke-width:1.69186"
       d="m 741.13833,562.06192 c -20.28043,15.9699 -51.26023,17.9466 -72.97811,3.67452 -5.59521,-7.97281 -12.57477,1.65848 -16.91863,5.71334 -19.30756,20.77145 -30.75567,49.54361 -26.68979,78.09004 1.59423,20.73205 7.9573,41.76783 20.34531,58.56092 12.24128,14.24063 27.31625,26.61619 45.3102,32.3767 5.53446,2.76115 7.99561,12.77458 14.74101,11.86617 3.29927,-6.32926 7.453,-13.01342 15.20694,-14.31144 15.64367,-7.22154 28.47327,-20.16601 37.95126,-34.20074 1.56084,-3.15627 5.43663,-5.69608 6.16605,-9.943 13.52736,-31.78547 19.43561,-71.06605 0.63775,-101.9909 -3.93758,-11.941 -16.96724,-18.47885 -22.51962,-29.61091 -0.37307,-0.22147 -0.82513,-0.31138 -1.25237,-0.2247 z m -42.30318,41.82404 c 19.60318,0.78608 39.64059,-0.71909 58.93762,2.42875 4.92286,10.03805 6.9932,21.57605 6.79389,32.72366 -41.67687,4.54628 -84.23073,7.35203 -125.81247,1.80752 -3.30208,-5.01264 -0.18774,-13.19014 -0.46592,-19.10285 1.26408,-6.03632 1.13149,-15.29512 5.60092,-18.37641 18.31532,0.17311 36.63064,0.34622 54.94596,0.51933 z m -33.93308,70.75092 c 30.96143,0.98928 62.52752,-1.17509 93.05575,3.23173 4.11777,2.33519 -2.5008,8.22284 -3.05659,11.47625 -4.94266,11.36413 -14.16284,21.54692 -27.32094,22.37752 -20.90663,1.93329 -43.00949,3.49392 -63.50763,-2.27344 -9.0008,-9.20119 -19.23618,-19.37908 -22.54936,-32.13217 6.0042,-4.47974 16.28789,-1.68444 23.37877,-2.67989 z"
       id="path10593"
       transform="translate(-3.7)" />
    <path
       style="fill:#000000;stroke-width:1.69186"
       d="m 700.68893,456.88225 c -27.46044,1.94434 -52.83059,26.99578 -50.28666,55.28294 4.60557,26.44836 30.31131,52.37455 58.73936,46.37092 24.56478,-4.27722 43.87486,-28.59509 42.04213,-53.5316 1.31944,-26.36541 -25.8174,-47.38807 -50.49483,-48.12226 z m -13.71334,18.6138 c 7.18451,1.73756 8.39616,12.98221 1.61916,16.55844 -4.47212,3.48104 -11.19615,14.61742 -17.07724,7.17059 -9.54483,-9.02772 6.62018,-23.15436 15.45808,-23.72903 z m -5.89509,50.86492 c 6.51481,1.49496 -2.26719,8.46154 -4.14044,3.02355 -0.673,-2.76369 1.84845,-3.43153 4.14044,-3.02355 z"
       id="path10632"
       transform="translate(-3.7)" />
    <path
       style="fill:#000000;stroke-width:1.69186"
       d="m 703.36551,411.19535 c -16.2983,0.89504 -39.47111,1.25631 -45.74308,19.93556 -3.63137,6.86994 0.63991,20.57601 9.82734,18.38249 11.85132,-7.75736 27.49776,-7.77175 41.11029,-7.52417 10.44753,-0.015 20.00718,4.21872 29.29037,8.06279 9.93146,-1.10754 11.55915,-15.21029 6.49649,-22.19248 -4.66903,-11.54262 -18.43349,-11.48918 -28.10079,-16.05287 -4.23263,-0.86993 -8.58761,-0.71231 -12.88062,-0.61132 z m -28.7881,15.33911 c 6.04273,1.57967 -3.63989,11.01938 -4.37175,3.08303 -0.92429,-2.96309 2.1743,-3.40695 4.37175,-3.08303 z"
       id="path10671"
       transform="translate(-3.7)" />
    <path
       style="fill:#000000;stroke-width:1"
       d="m 950.22876,584.39319 c -8.18741,0.5684 -16.29825,6.75545 -16.54191,15.34903 -9.23023,29.63263 -25.87581,56.84099 -43.03015,82.28665 -2.06779,6.24586 -9.03304,10.52738 -12.24937,16.53961 -6.60892,8.33196 -14.70481,16.58446 -21.09553,24.52441 -5.27042,0.0651 -5.32997,7.2914 -9.93308,9.33499 -23.47618,20.59244 -54.75392,39.20401 -86.9525,30.27509 -11.6902,-0.61219 -21.52005,-10.97739 -33.46716,-9.00454 -4.0989,1.37149 -9.73101,6.58416 -8.17513,10.88475 18.22779,8.7516 37.80533,18.18415 58.65675,15.87113 27.28318,1.76313 50.32249,-15.82433 71.54398,-30.50971 33.15264,-25.05076 56.45718,-60.07617 77.43065,-95.2757 11.0796,-21.75079 21.45063,-44.4391 27.42519,-68.15097 -0.0499,-1.92728 -2.07887,-2.26286 -3.61174,-2.12474 z"
       id="path11186"
       transform="translate(-3.7)" />
    <path
       style="fill:#000000;stroke-width:1"
       d="m 451.86284,584.39649 c -5.80415,3.37752 -0.1011,12.46345 1.00454,17.43412 20.61918,51.72831 48.75396,101.62146 90.48492,139.31432 5.39369,6.17777 12.3999,9.54917 18.05865,15.11443 14.74572,10.29997 31.08851,19.34486 48.50888,23.97356 14.17945,0.14922 28.90733,1.10536 42.75289,-1.00666 10.50647,-6.37944 23.65439,-10.09274 32.44579,-18.69761 -2.43639,-6.27221 -12.42855,-2.13318 -17.31517,-1.45723 -19.36555,6.09791 -39.72839,11.40791 -59.52255,4.4776 -29.73974,-6.83408 -52.81959,-29.12306 -73.19374,-50.57945 -6.58301,-7.52221 -12.85147,-16.18202 -19.7397,-22.97705 -2.31911,-7.36418 -9.46371,-12.57712 -12.45913,-19.93298 -14.91882,-24.14097 -25.98625,-50.42639 -37.31204,-76.31815 -3.13306,-4.52411 -7.85305,-9.19907 -13.71334,-9.3449 z"
       id="path11225"
       transform="translate(-3.7)" />
    <path
       style="fill:#000000;stroke-width:1"
       d="m 641.75461,543.91405 c -23.05824,6.50186 -41.13838,24.74443 -55.64643,43.07641 -8.59081,14.31324 -19.86103,30.16338 -17.95621,47.61669 4.66102,2.20431 9.45769,-5.08473 10.33292,-9.42751 11.87699,-29.65779 36.96954,-50.49952 61.58446,-69.60099 3.35808,-2.11016 9.25306,-11.13558 1.68526,-11.6646 z"
       id="path11264"
       transform="translate(-3.7)" />
    <path
       style="fill:#000000;stroke-width:1"
       d="m 795.72073,624.7798 c -4.29611,4.42948 1.65366,12.28207 1.943,17.59604 5.52338,16.04805 7.62853,33.48192 14.46013,48.93184 4.92694,5.06466 8.56292,-4.46509 7.54399,-8.4527 1.66178,-21.32565 -3.84281,-46.39507 -23.38868,-58.08839 l -0.27426,-0.0132 z"
       id="path11377"
       transform="translate(-3.7)" />
    <path
       style="fill:#000000;stroke-width:1"
       d="m 819.71081,405.11852 c -14.95124,6.74854 -25.22302,21.01067 -37.05906,31.97687 -6.18964,8.4629 -13.63186,15.57574 -21.73647,22.34448 -5.01938,2.23123 -3.60415,10.12533 2.23378,8.1487 15.51901,-6.13016 27.11455,-18.80261 34.64974,-33.4157 5.43772,-11.67618 20.14922,-15.05747 25.15365,-26.62891 0.20038,-1.74587 -1.74157,-2.69919 -3.24164,-2.42544 z"
       id="path11416"
       transform="translate(-3.7)" />
    <path
       style="fill:#000000;stroke-width:1"
       d="m 650.17096,363.87937 c -11.95516,1.4716 -25.49181,11.14543 -26.03552,24.02643 0.86281,10.92986 11.9679,18.2666 22.50634,15.69705 8.12409,-1.89335 -7.53749,-4.93485 -10.03215,-8.72803 -6.95828,-7.73749 2.15031,-18.96563 11.1458,-19.20529 9.04419,-2.78768 18.25149,2.3432 27.02685,1.74143 0.95598,-5.18954 -7.88105,-7.10754 -11.19537,-9.91325 -4.13577,-2.13289 -8.69993,-3.77111 -13.41595,-3.61834 z"
       id="path11492"
       transform="translate(-3.7)" />
    <path
       style="fill:#000000;stroke-width:1"
       d="m 656.20483,381.42253 c -5.01527,0.3215 -15.98939,0.044 -15.38868,7.37216 8.29955,6.21358 20.59266,0.31802 29.44568,6.39405 4.37156,1.44987 12.05688,7.97348 15.89757,3.09954 -3.03639,-7.80971 -11.32512,-15.01375 -19.91574,-16.35687 -3.32323,-0.46131 -6.68703,-0.58372 -10.03883,-0.50888 z"
       id="path11609"
       transform="translate(-3.7)" />
    <path
       style="fill:#000000;stroke-width:1"
       d="m 750.34444,378.07515 c -11.78082,1.4093 -26.20857,7.12197 -30.59562,18.9872 -1.32606,6.42376 5.96324,4.83923 8.56505,1.52994 8.74444,-9.59214 21.70472,-5.92526 33.02437,-6.85997 6.444,-2.7484 0.18294,-11.96625 -4.88063,-12.57993 -1.94751,-0.73198 -4.03005,-1.12498 -6.11317,-1.07724 z"
       id="path11648"
       transform="translate(-3.7)" />
    <path
       style="fill:#000000;stroke-width:1"
       d="m 746.70627,362.80543 c -9.82803,1.29756 -23.81562,6.30887 -24.96489,17.55638 5.51952,3.18817 11.45253,-4.59979 17.4209,-4.61297 8.59004,-0.58452 19.94069,-3.29289 26.58406,3.59521 1.43058,4.3341 2.3541,12.93499 -1.11673,14.87249 -3.56256,1.36413 -14.57121,-1.68644 -14.00099,4.68637 6.42193,9.8578 20.90494,1.33282 24.79636,-6.8765 6.78647,-16.16443 -14.61766,-30.21941 -28.71871,-29.22098 z"
       id="path11726"
       transform="translate(-3.7)" />
    <path
       style="fill:#000000;stroke-width:1"
       d="m 631.14742,241.24575 c -18.10809,-0.14121 -31.89641,19.82237 -24.28748,36.54688 3.60271,13.87216 20.87739,20.76072 32.74019,12.38166 9.29249,-5.45014 15.35443,7.31818 20.494,13.0822 11.6554,13.79995 14.91538,33.14949 27.88199,45.85478 2.18652,3.37036 10.1738,6.13836 9.57691,-0.35623 -3.77564,-29.32025 -23.65973,-53.31357 -41.4275,-75.61834 -4.48915,-7.89082 1.19175,-19.60625 -8.3701,-24.99793 -4.52836,-4.11874 -10.28901,-7.42422 -16.60801,-6.89302 z m 2.95415,13.57786 c 12.24894,1.05607 8.31953,18.31023 -0.97811,20.95993 -5.63293,1.90036 -13.60444,1.08341 -13.55473,-6.62536 -3.52009,-9.74091 6.15397,-15.42035 14.53284,-14.33457 z"
       id="path11765"
       transform="translate(-3.7)" />
    <path
       style="fill:#000000;stroke-width:1"
       d="m 261.35314,836.63605 c 0.24169,28.05564 0.48512,56.11126 0.73028,84.16687 16.05306,1.55999 33.77391,0.0518 50.44527,-1.02768 15.9595,-0.62753 26.696,-20.80356 17.78769,-34.02891 -2.20007,-4.38069 -12.37277,-3.92983 -8.72037,-10.05865 8.63977,-5.07628 12.64883,-18.97442 5.19125,-27.05328 -9.13509,-15.81562 -29.53165,-11.17528 -44.58856,-12.56488 -6.72778,0.57359 -14.84538,-1.76224 -20.84556,0.56653 z m 32.51549,14.03717 c 7.09907,0.17668 19.14759,-1.16051 19.41347,8.83272 1.29836,11.35547 -12.33852,12.61987 -20.30566,13.19454 -4.26683,-0.69908 -14.73454,4.13055 -14.15283,-3.42668 0.37526,-5.88681 -2.5071,-16.09162 1.33425,-19.00358 4.57026,0.13434 9.14052,0.26867 13.71077,0.403 z m 1.23255,36.86411 c 6.86511,0.83079 21.45598,-2.73513 21.84882,7.94382 -0.4751,11.34297 -12.93355,13.12405 -21.74305,12.04157 -11.60726,1.58287 -20.61841,0.54013 -16.74022,-13.37325 -3.19429,-11.57807 9.9863,-4.83036 16.63445,-6.61214 z"
       id="path11804"
       transform="translate(-3.7)" />
    <path
       style="fill:#000000;stroke-width:1"
       d="m 369.68854,837.47537 c 0.10133,27.63376 0.20267,55.26752 0.304,82.90128 20.21894,2.32299 42.22227,0.328 63.12433,0.99793 5.61194,-12.45179 -2.6732,-18.91368 -15.22677,-15.53738 -9.44244,-1.04724 -22.38517,2.17518 -29.54287,-1.65901 -0.58509,-5.71984 -3.49951,-13.46131 -0.35552,-18.22699 13.00207,-0.0902 27.05368,1.29153 39.35895,-1.10698 4.32847,-14.14127 -7.08726,-14.08348 -17.91987,-12.84427 -6.98105,-1.20129 -19.42005,3.03636 -22.36101,-5.76622 0.26075,-4.65156 -1.59539,-13.19757 2.15084,-15.1253 14.81579,-0.9743 30.77961,0.7049 44.89749,-1.88915 4.33134,-14.11553 -7.16208,-13.9452 -17.91987,-12.74845 -15.32804,0.68243 -31.89655,-1.36637 -46.5097,1.00454 z"
       id="path11843"
       transform="translate(-3.7)" />
    <path
       style="fill:#000000;stroke-width:1"
       d="m 470.56585,837.59103 c 3.40929,27.61015 1.6402,55.5254 2.15448,83.28458 16.10236,0.87803 33.71186,-1.92576 50.49484,-1.18603 11.73083,6.59147 18.25084,-11.90481 8.02974,-13.85238 -13.64615,0 -27.2923,0 -40.93846,0 0.49959,-5.85282 -3.83004,-13.96065 0.043,-18.86493 12.64612,-2.37855 26.44307,0.40832 38.51301,-2.12805 0.97786,-4.92038 0.15073,-11.99098 -6.5791,-11.21189 -10.55037,-2.11391 -21.97055,-0.33875 -32.13548,-2.65014 -2.47586,-6.28203 -1.76914,-13.26076 -1.13341,-19.83974 14.72166,-0.92766 30.40812,0.5618 44.55679,-1.80752 5.99206,-14.02038 -5.60377,-14.16239 -16.54193,-12.8641 -15.27477,0.76011 -32.05417,-1.52266 -46.46344,1.1202 z"
       id="path11882"
       transform="translate(-3.7)" />
    <path
       style="fill:#000000;stroke-width:1"
       d="m 644.94998,835.01688 c -16.38019,-1.32747 -34.26422,15.80035 -28.46096,32.39984 8.80813,16.98724 30.95609,15.2533 45.82899,22.8864 3.2472,4.94099 2.4967,16.50264 -5.93804,15.33582 -11.78785,1.31314 -23.70834,-1.54393 -34.18753,-5.86535 -2.32678,3.6578 -12.00317,11.13358 -3.62164,13.9843 17.86293,9.43037 45.33331,11.41072 57.90334,-7.30607 5.13943,-9.10186 4.27601,-22.42625 -5.96778,-27.71086 -9.12169,-8.06328 -22.31807,-6.46856 -32.96627,-11.62437 -7.02869,0.0614 -9.37063,-7.68864 -4.56202,-12.24345 7.13021,-8.60097 20.0505,-4.90287 29.5316,-3.50268 8.01336,7.27086 16.06673,-11.81848 5.86534,-13.36969 -7.54664,-2.392 -15.53422,-3.19769 -23.42503,-2.98389 z"
       id="path11921"
       transform="translate(-3.7)" />
    <path
       style="fill:#000000;stroke-width:1"
       d="m 714.65671,835.7802 c 0,27.63376 0,55.26752 0,82.90128 10.47349,5.19478 16.43038,-2.29369 14.5702,-13.02354 1.6057,-13.70043 -0.25025,-28.59657 2.24599,-41.57208 5.15336,2.28847 7.44026,7.78865 10.56423,11.50929 6.73678,5.44088 10.59757,14.52197 16.81619,20.44445 -0.17561,5.1749 4.95456,5.35963 6.38083,0.76662 2.72601,-5.2479 8.38785,-8.93977 9.80422,-14.35109 5.06472,-2.74478 6.39615,-10.03976 12.11069,-12.69558 2.27401,-2.71075 9.10906,-4.14308 6.22223,1.40768 -0.23612,16.64357 -0.35099,34.2945 2.32631,50.20735 11.85621,2.56795 18.41569,-1.68142 13.65386,-14.20239 -1.57705,-23.16441 0.0716,-46.43602 0.8261,-69.66047 -7.98675,-3.69327 -17.96982,0.18662 -21.91338,8.38659 -8.67221,9.1762 -14.69512,21.29237 -24.63928,28.87404 -7.62313,1.15047 -10.11812,-10.10103 -15.5406,-13.61172 -6.92896,-6.53611 -11.0753,-14.88984 -17.07402,-21.848 -4.30569,-3.60787 -11.25962,-6.43409 -16.35357,-3.53243 z"
       id="path11960"
       transform="translate(-3.7)" />
    <path
       style="fill:#000000;stroke-width:1"
       d="m 885.11849,834.78888 c -10.27138,0.79365 -10.74855,15.05648 -15.57703,21.72986 -7.92752,18.45945 -17.6672,36.69714 -24.21809,55.44816 -6.29738,4.20202 2.97536,10.04912 7.68608,8.05287 6.72994,-0.5703 8.65788,-8.35667 9.38455,-13.87195 16.498,1.17088 33.77519,-2.28043 49.83064,1.97934 4.60423,3.34644 2.54691,12.91955 10.18753,12.72863 3.92372,1.47608 10.94879,0.0697 8.4494,-5.49525 -8.83592,-24.15789 -22.18855,-46.55341 -31.57703,-70.38744 -1.04148,-6.26258 -8.11459,-10.55473 -14.16605,-10.18422 z m 2.14457,22.40066 c 7.11306,10.14338 14.58632,21.64716 16.71706,33.88352 -10.24691,2.33485 -21.87975,1.50242 -32.40644,0.2247 -3.41357,-3.35487 3.49497,-8.66977 3.98182,-12.46427 2.98056,-4.45576 3.89216,-10.93546 6.25196,-15.04503 3.19615,-0.86114 2.54388,-5.87122 5.4556,-6.59892 z"
       id="path11999"
       transform="translate(-3.7)" />
    <path
       style="fill:#000000;stroke-width:1"
       d="m 966.74426,837.47207 c 0,27.63375 0,55.26751 0,82.90127 5.10769,2.76487 15.42861,1.43342 15.03841,-6.54936 0.74081,-6.47755 0.37474,-13.01564 0.49567,-19.5192 9.65117,0.84453 22.31426,-4.02789 25.87746,8.37229 5.9851,6.94395 9.1816,20.57015 20.9362,18.67108 12.7522,2.59192 2.8461,-8.21908 -0.4659,-13.32673 -3.7023,-5.06215 -14.1344,-14.08918 -6.0041,-20.00826 11.2642,-7.31811 20.3758,-24.41796 11.1194,-36.75506 -6.4906,-11.00745 -19.1022,-16.52727 -31.6695,-14.76119 -11.59509,0.62347 -24.44947,-1.37608 -35.32764,0.97516 z m 28.51384,12.84428 c 8.8029,-0.15471 22.8182,-0.33186 25.4077,10.20735 1.2596,9.2035 -4.2563,20.3162 -14.6617,19.72738 -7.70184,-0.0792 -17.2436,1.16427 -23.93064,-0.6774 -0.45991,-9.74962 -0.79835,-19.50455 -1.18298,-29.25733 4.7892,0 9.57841,0 14.36762,0 z"
       id="path12038"
       transform="translate(-3.7)" />
    <path
       style="fill:#000000;stroke-width:1"
       d="m 423.23996,955.01357 c -7.96469,1.48335 -10.0698,11.33979 -16.19166,15.74886 1.57376,-7.31356 -0.48269,-17.34601 -10.10822,-15.6299 -6.47532,3.81831 -2.39025,14.07492 -3.73285,20.19 2.05853,7.85715 -4.76069,23.91048 4.38052,25.56957 4.82078,1.1355 11.15114,-0.7392 9.46055,-6.91282 -0.43443,-2.61927 0.20052,-6.59376 2.93102,-3.0665 2.1549,4.66841 7.73805,2.04839 4.77158,-2.03882 -2.70889,-5.17934 -12.77072,-6.56418 -12.90375,0.98471 0.3453,2.5217 -0.06,9.76484 -4.11731,6.62206 -1.7756,-11.89612 -0.35842,-24.13567 -0.83271,-36.19331 6.29127,-2.30718 6.61193,2.98612 5.30359,7.36225 -1.90812,4.44355 1.07403,13.3706 6.45353,7.76869 5.87548,-4.12085 8.79205,-14.49078 16.54192,-14.74432 -0.76741,3.45926 -10.06517,7.80426 -4.92358,10.90128 6.474,-1.16297 14.47628,-12.42836 5.47873,-16.11896 -0.7941,-0.31925 -1.65597,-0.47193 -2.51136,-0.44279 z"
       id="path12077"
       transform="translate(-3.7)" />
    <path
       style="fill:#000000;stroke-width:1"
       d="m 444.7319,961.63563 c -4.79723,2.35407 -0.13464,9.73253 -0.20487,13.82238 3.40621,2.81876 10.06418,-2.27061 11.42998,4.0347 3.37809,3.79665 5.18934,13.91309 11.55886,12.82445 4.57071,-2.07289 5.03304,-9.61693 -1.18298,-8.86245 -8.42762,-5.2053 -11.49325,-18.76552 -21.60099,-21.81908 z"
       id="path12116"
       transform="translate(-3.7)" />
    <path
       style="fill:#000000;stroke-width:1"
       d="m 444.04458,956.36508 c -7.63247,2.01503 -4.63019,13.27845 -6.03717,19.10946 0.69608,7.94463 -2.01106,18.28312 3.33085,24.83606 4.87672,1.0566 13.99835,2.4885 11.39034,-5.4953 0.0341,-6.85475 -1.40321,-13.54374 4.57662,-6.54275 5.35507,-1.20892 -2.05667,-9.27244 -4.51384,-11.25485 -2.79574,-3.20565 -9.71123,4.16939 -8.64106,-2.18753 0.70843,-4.80806 -5.74531,-16.16255 3.11277,-12.15035 4.6665,2.15476 7.96172,-4.01951 2.13465,-4.99628 -1.7165,-0.62889 -3.495,-1.3381 -5.35316,-1.31846 z m 0.87237,26.7658 c 0.0464,4.51727 0.87979,10.11891 1.59934,13.95456 -7.22474,1.97296 -0.56283,-6.74351 -2.24701,-10.00578 0.0305,-0.9904 0.11989,-4.14939 0.64767,-3.94878 z"
       id="path12192"
       transform="translate(-3.7)" />
    <path
       style="fill:#000000;stroke-width:1"
       d="m 464.26102,957.59432 c -0.67856,4.51 1.09642,13.31432 -0.65097,16.27096 -1.57963,-3.92951 -8.63682,-3.88185 -5.01941,0.94176 2.87435,4.11605 10.6859,15.27885 11.3042,4.3666 0.99931,-6.93553 2.32225,8.61832 -1.14972,11.74245 -1.76321,1.67859 1.87603,8.09338 -1.47377,4.19331 -2.11839,-1.6782 -7.26848,-10.65371 -9.2656,-5.57786 2.32113,8.45055 12.03641,14.55706 20.10079,10.35935 -0.70372,-14.27935 1.37216,-29.71006 -1.00124,-43.29781 -4.02582,0.73664 -9.55939,-1.42169 -12.84428,1.00124 z"
       id="path12231"
       transform="translate(-3.7)" />
    <path
       style="fill:#000000;stroke-width:1"
       d="m 494.66829,969.11022 c -10.41413,7.52069 -1.92415,22.04632 6.92276,26.8352 6.67782,3.39141 14.93832,-1.21235 18.80545,-6.48989 -1.65997,-5.58931 -6.06304,0.62484 -9.01115,0.93185 -9.27852,1.76831 -16.79167,-6.53267 -14.74194,-15.54717 -0.36307,-1.57965 0.72123,-5.73968 -1.97512,-5.72999 z"
       id="path12270"
       transform="translate(-3.7)" />
    <path
       style="fill:#000000;stroke-width:1"
       d="m 507.86614,999.09783 c -3.52373,-1.53379 -7.87271,3.11497 -2.41223,2.93437 2.19927,0.2902 12.41075,0.6857 7.77861,-2.62706 -1.769,-0.3094 -3.57505,-0.35059 -5.36638,-0.30731 z"
       id="path12309"
       transform="translate(-3.7)" />
    <path
       style="fill:#000000;stroke-width:1"
       d="m 645.37295,956.603 c -5.93611,1.18914 -5.33058,11.69135 -10.6865,12.16687 -1.46652,-1.86628 -7.50582,-9.78287 -7.79843,-3.5126 0.96768,4.81775 7.01817,14.06193 11.93557,7.63321 3.20247,-3.39102 5.03985,-11.37946 10.60718,-10.73275 -2.3872,1.67704 -6.87598,11.65308 -0.48905,8.32383 6.24741,-2.82132 6.84506,-13.36649 -1.22264,-13.72656 -0.77621,-0.10504 -1.56216,-0.18351 -2.34613,-0.152 z"
       id="path12533"
       transform="translate(-3.7)" />
    <path
       style="fill:#000000;stroke-width:1"
       d="m 677.91817,956.69552 c -4.512,1.33186 -12.98967,2.32664 -13.82569,7.70591 4.97003,1.07105 10.9373,-2.55509 16.44602,-1.31531 2.05038,0.35574 13.01058,0.95359 8.03643,-3.21505 -3.18211,-1.89056 -6.90877,-3.31426 -10.65676,-3.17555 z"
       id="path12572"
       transform="translate(-3.7)" />
    <path
       style="fill:#000000;stroke-width:1"
       d="m 678.86654,957.1251 c -5.33906,0.27314 -12.02175,2.07132 -14.75093,6.9558 3.67325,1.89772 5.80787,-0.85139 1.16646,3.84304 -13.10815,12.2859 8.01503,37.38056 21.87856,25.36803 4.15846,-1.41642 4.34073,-8.80319 -0.76001,-5.33003 -7.11658,6.26342 -19.86924,1.09414 -20.21974,-8.78315 -1.41799,-4.80283 1.11835,-9.08442 5.88186,-9.88352 2.36152,-4.40158 10.81018,-2.19219 14.34449,-0.0297 4.70748,3.58094 6.39781,-4.01792 1.58942,-5.34324 -0.44913,-0.8588 2.56067,-3.88824 -1.18298,-4.87402 -2.33908,-1.52341 -5.19963,-1.98518 -7.94713,-1.92317 z"
       id="path12611"
       transform="translate(-3.7)" />
    <path
       style="fill:#000000;stroke-width:1"
       d="m 494.58898,969.07057 c -11.41575,8.92746 0.0493,28.01148 12.6361,28.19331 4.75912,-0.69672 13.36855,-3.93111 12.70549,-9.48038 -5.93555,-0.50574 -13.41389,5.13428 -18.97397,-0.40644 -6.29537,-4.30681 -2.07563,-13.65416 -5.90169,-18.35936 l -0.0892,-0.003 z"
       id="path12650"
       transform="translate(-3.7)" />
    <path
       style="fill:#000000;stroke-width:1"
       d="m 557.45226,976.57821 c -2.01858,3.71915 -5.67699,7.59303 -9.35812,2.83519 -5.38383,0.0765 -1.47002,8.68524 -0.41636,11.54565 0.68145,4.418 6.077,8.43165 8.43288,2.71292 2.12435,-5.12965 3.65954,-11.43305 2.33623,-16.83601 l -0.88559,-0.27757 z"
       id="path12689"
       transform="translate(-3.7)" />
    <path
       style="fill:#000000;stroke-width:1"
       d="m 562.46837,953.43736 c -4.52335,-0.89864 -4.4718,4.37056 0.0793,3.1359 5.64673,0.96416 5.53216,-3.89678 -0.0793,-3.1359 z"
       id="path12728"
       transform="translate(-3.7)" />
    <path
       style="fill:#000000;stroke-width:1"
       d="m 1102.014,834.99706 c -5.4122,0.14909 -10.8784,-0.0785 -16.2578,0.51879 0.1578,4.85165 10.6383,0.81455 14.4271,2.23709 9.0908,-0.32594 18.507,0.68319 27.4201,-0.65097 -2.4258,-4.44088 -11.1001,-0.74677 -15.709,-2.09553 -3.2934,-0.0322 -6.587,-0.0278 -9.8804,-0.009 z"
       id="path12831"
       transform="translate(-3.7)" />
    <path
       style="fill:#000000;stroke-width:1"
       d="m 505.6815,956.6608 c -1.7932,0.1828 -4.50555,-0.56805 -5.46759,1.39143 -1.42798,0.0276 -3.24953,0.0165 -3.92428,1.48431 -0.77428,0.39587 -1.02162,1.23559 -1.92301,1.40195 -0.60233,0.59163 -0.60805,1.38604 -1.44283,1.73374 -0.43424,0.91 -1.91048,0.94848 -1.96857,2.18937 -0.85984,0.24011 -0.88289,1.31819 -1.82253,1.35755 -1.35053,0.69519 -0.20672,2.56726 -1.60815,3.07377 -0.79271,0.67226 0.18631,2.28913 -1.1793,2.23167 -1.46368,1.08387 -0.43104,3.38665 -0.73961,4.97784 0.21392,2.83463 -0.4446,5.84172 0.42,8.57933 0.63421,0.6372 1.28874,0.95671 1.03047,2.02893 -0.0955,1.22724 0.37402,2.48956 1.42293,3.07007 0.41656,0.8845 1.60133,0.9287 1.3523,2.09182 0.0137,1.14063 1.34393,1.30847 1.45568,2.35293 0.48825,0.78581 1.51857,0.62589 1.84824,1.54564 0.83562,0.7324 2.20394,0.11533 2.53986,1.36281 0.98646,0.59213 1.43862,1.97566 2.85997,1.7834 1.39083,-0.34068 1.90955,0.39737 2.86873,1.09874 2.69861,0.092 5.43026,-0.56063 8.15597,-0.1965 2.02115,-0.1146 4.28918,0.7936 6.169,-0.1721 0.36506,-0.98229 1.68021,-0.82383 1.97266,-1.90778 1.17853,0.18402 2.23521,-0.60659 2.66311,-1.56551 1.0243,-0.24563 1.15989,-1.38964 2.07605,-1.77755 0.28893,-1.05077 1.56463,-1.09697 1.89146,-2.15023 1.06924,-0.29838 1.03267,-1.61198 2.11051,-1.84064 1.05372,-0.77988 0.0848,-2.40299 1.36632,-2.88743 0.75978,-0.78004 0.0548,-2.23981 1.37619,-2.38122 1.23554,-1.40352 0.30179,-3.7205 0.59237,-5.4872 -0.19064,-3.13294 0.3968,-6.4069 -0.32011,-9.44445 -1.15463,-0.19753 -1.15496,-0.92901 -1.31023,-1.88503 -0.25195,-0.92343 -1.41162,-1.07974 -1.09352,-2.16718 0.11185,-1.12808 -1.10442,-1.47887 -1.57953,-2.10759 -0.43108,-0.88442 -1.35478,-1.16981 -1.82311,-2.01997 -1.1019,-0.30569 -1.14579,-1.92139 -2.52818,-1.84648 -1.0706,0.3183 -1.28116,-0.88089 -2.1993,-1.11981 -0.50905,-1.76221 -2.7955,-1.03368 -3.89625,-1.5655 -1.1107,-1.92713 -3.8284,-0.94829 -5.62472,-1.2333 -1.24034,-10e-4 -2.48067,-8.5e-4 -3.721,1.7e-4 z m 2.75774,5.29001 c 1.7414,0.10145 3.80485,-0.19724 5.35719,0.13903 0.23881,1.04002 1.38816,1.21162 1.78924,2.1292 0.68753,0.77796 2.20019,-0.1448 2.31963,1.09644 0.52589,0.75401 1.47403,0.68442 1.82662,1.57953 0.87217,0.35305 1.15691,1.46338 2.10117,1.70687 0.22399,1.02371 1.56513,1.16658 1.1864,2.34943 -0.0379,0.90689 0.79663,1.55877 1.46445,1.81318 -0.009,1.32265 -0.19551,3.13124 1.18289,3.80044 -0.22595,1.14025 0.64336,2.85234 -0.69163,3.42952 -0.81565,0.9218 -0.22219,2.46225 -0.6227,3.34948 -1.40013,0.22364 -1.28415,1.89277 -1.47788,2.8074 -0.90932,0.44804 -0.96539,1.52189 -1.96973,1.8126 -0.53604,0.98832 -1.94753,1.3589 -1.78924,2.7373 0.25671,1.23488 -1.70234,0.32459 -2.14848,1.37858 -0.41288,0.87432 -1.71896,0.96371 -1.94053,2.04217 -0.99617,0.18917 -1.04695,1.60753 -2.23785,1.12099 -1.15191,-0.11164 -2.5394,0.20617 -2.98031,1.34526 -1.50821,-0.0424 -3.22281,0.34908 -4.61708,-0.087 -0.84149,-1.20193 -2.57023,-0.98347 -3.67836,-1.3745 -0.36119,-1.18114 -1.89713,-0.92072 -2.61813,-1.22086 -0.20735,-1.02376 -1.35521,-1.15493 -1.7022,-2.07079 -0.74,-0.3332 -1.2374,-0.63277 -1.69226,-1.32133 -0.7657,-0.41689 -0.75034,-1.68643 -1.8348,-1.81202 0.0742,-1.10121 -0.45974,-2.21458 -1.27344,-2.77468 0.10976,-1.04612 -0.29261,-2.23714 -1.29271,-2.63742 -0.003,-3.1305 -0.23728,-6.48153 0.10865,-9.49001 1.36115,-0.35954 0.92487,-2.06006 1.43466,-2.81499 1.29579,-0.64142 0.42989,-2.53002 1.78982,-2.91196 0.43026,-0.85683 1.42059,-1.14986 1.83421,-1.97557 1.25073,0.0874 1.0625,-1.779 2.19405,-1.46913 0.91533,0.10495 1.60176,-0.67094 2.06846,-1.18172 1.05846,0.10344 2.43757,-0.251 2.59009,-1.49541 1.77327,0 3.54654,0 5.3198,0 z"
       id="path16553"
       transform="translate(-3.7)" />
    <path
       style="fill:#000000;stroke-width:1"
       d="m 558.13007,955.78341 c -0.84934,1.0658 0.0276,2.51658 -1.29622,3.24551 -0.71319,1.29759 0.0245,3.19171 -0.54676,4.29346 -1.87424,0.565 -1.00427,3.02928 -1.43407,4.27126 -1.51247,0.66817 -0.78895,2.73846 -1.19049,3.78701 -1.36944,0.15063 -1.24787,1.90267 -1.503,2.61872 -0.37082,-0.83208 -1.58246,-0.9842 -1.14726,-2.11402 0.0677,-1.16721 -0.01,-2.67297 -1.18056,-3.22155 -0.30029,-1.7041 0.76293,-4.51323 -1.34353,-5.35018 -0.57713,-1.42242 0.54851,-4.15102 -1.39085,-5.10542 -0.62028,-2.22165 -3.53269,-1.31734 -5.21173,-1.54712 -2.5498,0.16384 -5.22739,-0.37217 -7.68209,0.31866 -0.8238,1.58572 -0.47573,3.62092 -0.243,5.35602 0.71265,0.84278 1.2689,1.42452 1.00064,2.65435 -0.0635,0.97537 0.3773,2.16605 1.47789,2.30328 0.26804,1.70157 -0.69431,4.31194 1.19691,5.3052 0.057,1.36103 -0.31768,3.44321 1.38792,3.96167 0.1979,1.37998 -0.26082,3.38153 1.30323,4.10128 -0.0195,1.43837 -0.19513,3.45891 1.40311,4.06623 0.0653,1.33748 -0.0321,3.09468 1.28337,3.80978 0.27563,1.71225 -0.70626,4.42815 1.30498,5.335 0.37177,0.71983 0.0943,2.3765 1.40019,2.66019 -0.19693,1.21627 0.38626,2.37675 1.37683,2.9365 1.23547,1.73486 3.79749,0.77676 5.57916,1.06266 1.98062,-0.1518 4.07955,0.3468 5.96704,-0.3196 0.70333,-1.13403 0.18226,-2.34383 1.40078,-3.14156 0.62023,-1.2382 -0.32944,-3.08543 1.17588,-3.67953 1.151,-1.81713 0.1584,-4.32127 0.70272,-6.19018 1.78456,-1.04245 0.68365,-3.85669 1.14668,-5.16558 -0.17809,1.09704 0.41584,2.17031 1.19282,2.71919 -0.098,1.42176 -0.0543,3.28229 1.3926,3.90091 0.17116,1.33972 -0.23203,3.28455 1.29213,3.96926 -0.0403,1.45437 -0.19144,3.62985 1.50592,4.08142 -0.1585,1.12323 0.39105,2.2395 1.34879,2.71569 1.14884,1.79768 3.72998,0.83638 5.48395,1.11048 1.62443,-0.3088 4.49884,0.893 5.03824,-1.29974 -0.6023,-1.42926 1.39244,-1.22207 1.40663,-2.56557 0.37598,-1.12193 -0.52528,-2.75363 0.79618,-3.3191 1.06229,-1.18891 -0.27947,-3.23134 1.28045,-3.96284 0.75068,-0.76718 -0.11766,-2.21959 1.20567,-2.4096 1.43006,-1.22132 -0.14781,-3.55957 1.47789,-4.54814 0.75551,-1.33549 0.19266,-3.19814 0.67118,-4.41847 2.09766,-0.97622 0.75019,-3.93323 1.40194,-5.48804 1.51208,-0.8038 0.76795,-2.91006 1.27636,-4.07733 1.93792,-0.8912 0.97963,-3.51531 1.29447,-5.12177 1.58196,-0.82462 1.42967,-3.29366 0.59465,-4.6165 -0.91304,-0.5843 -1.0634,-2.12401 -2.5124,-1.99426 -1.18731,-0.19625 -2.66933,0.19049 -3.68712,-0.2103 -1.15142,-1.64005 -3.55821,-0.95297 -5.27073,-0.90659 -0.98855,0.34588 -1.41166,1.25974 -2.1812,1.8862 -0.72459,1.46195 -0.037,3.35545 -0.50119,4.75085 -1.52273,0.69392 -0.7244,2.79959 -1.3377,3.81271 -1.93925,1.14106 -0.96412,3.9036 -1.30159,5.73417 0.25066,1.52324 -1.60065,1.00338 -1.30953,-0.27534 -0.14879,-1.09242 -1.69262,-1.10582 -1.319,-2.31905 0.10314,-1.25962 -0.30197,-2.63758 -1.2524,-3.32904 0.0471,-1.37557 0.13762,-3.29206 -1.39611,-3.84426 0.006,-1.43205 -0.11796,-3.12638 -1.35989,-3.96166 -0.20854,-1.04302 -1.35699,-1.20575 -1.77054,-2.09299 -2.332,-1.01646 -5.06602,-0.23529 -7.54422,-0.49244 -0.28468,0.10671 -0.56935,0.21341 -0.85402,0.32011 z m -17.0909,4.97107 c 1.2062,-0.10496 2.33277,-0.27936 2.07255,1.19984 0.077,1.22625 1.83541,1.20554 1.31958,2.58951 0.23045,1.77993 -0.45168,4.32717 1.27402,5.44773 0.28889,1.68447 -0.69618,4.31594 1.20217,5.29819 -0.0433,1.4517 -0.187,3.62007 1.50534,4.06973 -0.14922,1.15964 0.39459,2.43201 1.58712,2.69816 1.53285,1.52923 4.21898,0.29794 5.04233,-1.31724 1.90682,-0.58302 1.08112,-3.02959 1.49307,-4.30164 1.56802,-0.65457 0.70374,-2.84089 1.24949,-3.8022 1.92671,-0.55756 0.95327,-3.04937 1.47496,-4.29054 1.36278,-0.77272 0.83246,-2.67301 1.24423,-3.78175 1.56502,-0.57127 1.23966,-2.50344 1.27519,-3.80979 1.00066,-0.20353 1.54642,0.11204 2.08773,0.88557 0.75779,0.3722 0.72512,1.76491 1.88854,1.76177 0.006,1.34717 -0.22629,3.2019 1.18464,3.89157 0.3003,1.7041 -0.76292,4.51323 1.34353,5.35018 0.33916,0.7175 0.0742,2.36535 1.36164,2.65669 -0.17414,1.17703 0.32792,2.55574 1.49541,2.8477 -0.0965,1.39935 -0.0523,3.15466 1.19867,3.90326 -0.4887,1.74414 0.89961,3.14763 2.64559,2.62982 1.85237,0.52606 3.16971,-1.01415 2.64559,-2.79514 -0.24809,-1.71226 -0.015,-2.67421 1.33423,-3.43461 0.49035,-1.84916 -0.14531,-4.12321 0.30312,-5.90527 1.83736,-1.08896 0.58508,-3.83501 1.22203,-5.28592 2.18719,-0.845 0.93005,-3.82095 1.41539,-5.45708 0.82555,-0.36387 0.9588,-1.4591 2.05968,-1.04663 0.78542,0.11337 1.2463,1.39957 2.34418,1.17982 1.16886,-0.3379 0.85336,1.67853 0.0298,1.8862 -1.16348,1.14585 0.21578,3.43765 -1.39435,4.0709 -1.21065,1.39905 -0.25157,3.5748 -0.79911,5.08089 -1.48056,0.72773 -0.73132,2.81593 -1.22963,3.80453 -1.81999,0.49322 -1.03126,2.85139 -1.4697,4.00431 -1.48994,0.80849 -0.80181,2.86813 -1.25182,4.06857 -1.73731,0.57456 -1.03785,2.80072 -1.4148,3.97685 -1.92897,0.8328 -0.16554,3.53368 -1.77989,4.37174 -0.77679,0.63512 0.0305,2.41654 -1.43241,1.96028 -0.92163,-0.038 -2.04528,0.43833 -2.46033,-0.64479 -1.49425,-0.47052 -0.41419,-2.38502 -1.20859,-3.46398 -0.76891,-0.61373 -0.91081,-1.27218 -0.94982,-2.22967 -0.0754,-1.18009 -1.83402,-1.00973 -1.39085,-2.29511 0.0603,-1.16577 0.008,-2.66945 -1.18289,-3.20812 -0.26865,-1.70292 0.6672,-4.31837 -1.19692,-5.32798 -0.3376,-1.68437 0.85045,-4.33214 -1.13791,-5.16909 -1.72846,0.23935 -3.98278,-0.60535 -5.36042,0.57151 -0.89076,1.27341 0.48676,3.28236 -1.1154,4.09463 -0.86965,1.05303 0.2677,3.019 -1.17939,3.5183 -1.34637,1.83866 -0.39243,4.38931 -0.74069,6.51029 -1.79761,1.03269 -0.81138,3.62372 -1.28979,5.099 -1.40014,0.22363 -1.28416,1.89277 -1.47789,2.8074 -0.92739,0.35858 -0.86754,1.76897 -2.16048,1.26736 -0.85287,0.17868 -0.8824,-1.26315 -1.78892,-1.35966 -0.27686,-0.9845 -1.47802,-1.07603 -1.37157,-2.22792 -0.24441,-1.07075 -1.61577,-1.37945 -1.24656,-2.58952 0.0924,-1.14283 -0.44399,-2.2778 -1.18465,-2.99082 0.0169,-1.92866 -0.57712,-3.87029 -1.48898,-5.48745 0.16903,-1.09494 -0.40772,-2.17053 -1.19925,-2.7116 0.0113,-1.35537 0.20569,-3.37311 -1.47672,-3.83257 -0.28381,-1.69248 0.6803,-4.26909 -1.20625,-5.2497 -0.0293,-1.507 0.29883,-3.69062 -1.40487,-4.35655 -0.14135,-1.26826 0.16083,-3.09036 -1.28862,-3.71049 -0.35145,-1.91695 0.43757,-1.36997 1.97966,-1.41947 z"
       id="path16592"
       transform="translate(-3.7)" />
    <path
       style="fill:#000000;stroke-width:1"
       d="m 614.05838,956.97974 c -0.69131,1.29444 -0.74491,3.28811 0.1659,4.51193 0.94541,0.22181 0.93563,0.81173 0.95683,1.65372 0.095,1.09981 1.52222,1.23169 1.15193,2.42244 -0.0493,0.92277 0.82944,1.54947 1.46679,1.82837 -0.15713,1.07052 0.37668,2.16637 1.19633,2.67246 -0.0842,1.04235 0.24756,2.3533 1.4183,2.61405 -0.0864,1.18142 0.5093,2.28506 1.4551,2.84303 0.41656,0.8845 1.60134,0.92871 1.3523,2.09182 0.0283,1.16093 1.51918,1.37234 1.18756,2.55797 -0.0274,1.4955 1.62621,1.64126 2.25305,2.70985 0.87207,0.57623 0.0321,2.35101 1.38851,2.79162 0.48193,2.66084 0.0826,5.78476 0.21672,8.61029 0.16639,1.91452 -0.3624,3.95505 0.32011,5.77601 1.4795,1.0238 3.65034,0.1403 5.15565,0.7273 1.06219,2.0451 3.90625,0.9278 5.71469,1.2372 2.17665,0.5046 2.43956,-1.8433 2.17594,-3.39331 0.071,-4.64132 -0.14165,-9.51667 0.10573,-14.01245 1.87812,-0.41562 1.1549,-2.81662 1.53454,-3.99789 0.95682,-0.42545 0.83269,-1.6108 1.93527,-1.78573 1.04591,-0.79434 0.0326,-2.41254 1.36865,-2.86172 0.50603,-0.92672 1.8789,-1.36888 1.63561,-2.7151 0.3103,-1.27337 0.19187,-2.83158 -1.28979,-3.31677 -1.21722,-0.60582 -2.52878,0.13886 -3.53641,0.7734 -0.47115,0.9455 -1.8252,1.319 -1.64846,2.63625 0.22767,1.0792 -1.35744,1.36049 -1.20801,2.56673 0.26051,1.10686 -1.24379,1.03267 -1.39552,2.06261 -1.67058,0.62854 -1.22636,2.71895 -1.41246,4.11413 -2.33334,0.52101 -1.05185,3.52286 -1.38033,5.2129 0,3.14192 0,6.28384 0,9.42576 -0.87548,-0.28429 -3.05926,0.70956 -2.71473,-0.86906 -0.26262,-3.82382 0.2651,-7.72066 -0.35028,-11.50371 -0.74322,-0.86004 -1.14647,-1.57237 -0.93405,-2.81148 0.19542,-1.11312 -0.85059,-1.7156 -1.28336,-2.41602 -0.28253,-1.13886 -1.63536,-0.98067 -2.0188,-1.99894 -1.18702,-0.44281 -0.0571,-2.36177 -1.46328,-2.87984 -1.21838,-0.17402 -0.15574,-1.97553 -1.27402,-2.5381 -1.09032,-0.46636 -0.0493,-2.34018 -1.41772,-2.84537 -0.91778,-0.0226 -0.92147,-1.14178 -1.79391,-1.33127 0.0861,-1.08207 -0.17699,-2.49321 -1.42005,-2.77293 0.10304,-1.13366 -0.53123,-2.2008 -1.26935,-2.81733 -0.61836,-1.52901 1.45365,-1.61881 1.90139,-0.46731 0.71861,0.83894 2.28015,-0.12311 2.41661,1.19691 0.64485,0.66426 1.50843,0.94861 2.29218,1.41304 0.98616,-0.0988 1.85696,0.19146 2.78461,0.4387 2.15329,-0.29799 1.43015,-3.38464 -0.12734,-3.89625 0.18714,-1.11723 -0.6046,-2.00108 -1.2711,-2.6415 -0.9127,-2.0116 -3.6488,-1.06403 -5.36244,-1.33477 -2.96952,0.18136 -6.11088,-0.39866 -8.97889,0.31836 z"
       id="path16631"
       transform="translate(-3.7)" />
    <path
       style="fill:#000000;stroke-width:1"
       d="m 690.51061,960.54945 c -1.31643,-0.0749 -1.70405,1.47323 -2.99082,1.57777 -1.59037,0.86603 -0.26461,2.68478 0.94164,2.65377 0.25373,1.16998 1.56872,1.19945 2.11344,2.13388 1.06102,0.49404 0.0389,2.39966 1.44342,2.89035 0.64539,0.26471 0.78837,1.25966 1.62976,1.36339 0.20139,1.37765 -0.26024,3.35764 1.27869,4.09952 -0.0436,1.79992 0.23667,3.85744 -0.12851,5.51491 -1.55664,0.7989 -0.70224,2.98896 -1.32075,4.10653 -0.88815,0.38647 -1.11053,1.35528 -1.97908,1.7501 -0.7413,0.86762 0.0536,2.25397 -1.17121,2.70517 -0.38912,0.97197 -1.60411,1.06966 -1.86517,2.12629 -0.89179,0.31677 -1.12528,1.30568 -2.08481,1.46912 -0.54645,0.67442 -0.65297,1.3907 -1.70162,1.14901 -1.20663,-0.0259 -1.36638,1.55742 -2.60119,1.18056 -0.90689,-0.0379 -1.55877,0.79664 -1.81318,1.46445 -1.15909,0.34302 -1.33943,-0.43199 -2.00304,-1.11338 -1.45898,-0.85471 -3.53786,0.0811 -4.85832,-0.61744 -0.61869,-1.37716 -2.5629,-0.4211 -2.95461,-1.84823 -0.94358,-0.42423 -1.15091,-1.69879 -2.29685,-1.81143 -0.52516,-0.78079 -1.27861,-1.1626 -1.56142,-2.08715 -0.69622,-0.49539 -1.38329,-0.69905 -1.86225,-1.46971 -0.78245,-0.61052 -0.005,-2.32589 -1.30498,-2.79513 -0.78903,-0.97504 0.15344,-3.07616 -1.21677,-3.97393 -1.09163,-0.56239 -0.27526,-2.28619 -0.52966,-3.34189 0.0571,-1.15779 -0.3407,-2.44643 0.80537,-3.10473 0.84924,-0.99148 0.36494,-2.65292 0.9066,-3.55569 0.73745,-0.52775 1.04785,-1.29883 1.81376,-1.79507 0.57166,-0.83979 0.0538,-2.07017 1.23605,-2.37864 1.52179,-1.35479 -0.0356,-3.67153 -1.84239,-3.55277 -1.22702,-0.39303 -2.52471,0.40145 -2.87925,1.49366 -1.33345,0.19381 -1.50024,1.72184 -1.47554,2.76359 -1.4348,0.33956 -0.83125,2.13491 -1.46796,2.84361 -1.51445,1.68876 -0.59476,4.30193 -0.89163,6.35316 0.15841,3.19569 -0.33662,6.48667 0.3256,9.62903 0.42734,0.68226 1.13826,0.95449 0.89899,1.89029 -0.10443,1.27329 1.56711,1.46708 1.19516,2.72737 -0.11863,1.17592 1.16095,1.45213 1.69928,2.03283 0.54406,0.66017 1.17032,0.94837 1.42064,1.8161 0.61931,0.51724 1.31307,0.57991 1.66773,1.36631 0.95526,0.38352 0.86563,1.95398 2.20573,1.89146 1.0026,-0.20221 1.33206,0.39232 1.98609,0.9802 0.93088,0.41399 1.97155,-0.008 2.51357,1.01351 2.66442,0.8926 5.62108,0.2311 8.3924,0.4398 1.71075,-0.2464 4.23209,0.5895 5.32565,-1.18869 1.13389,0.15998 2.32178,-0.31568 2.84653,-1.25767 1.27815,-0.15864 1.13979,-1.65764 2.18762,-2.06845 0.41471,-1.33801 2.59074,0.1583 2.96984,-1.41348 0.37903,-0.92569 -0.27961,-2.08855 1.04732,-2.30226 0.51725,-0.61932 0.57992,-1.31308 1.36632,-1.66774 0.47099,-0.95285 1.7809,-1.3629 1.65663,-2.67129 0.47519,-0.9831 2.1338,-1.67813 1.47438,-3.42425 -0.0702,-4.94432 0.14019,-9.93951 -0.10497,-14.85212 -0.31037,-1.05202 -1.7261,-0.8585 -1.45294,-2.19088 -0.16106,-1.11942 -1.33961,-1.37647 -1.76295,-2.31905 -0.91,-0.43423 -0.94848,-1.91048 -2.18937,-1.96857 -0.32099,-0.85933 -1.30744,-0.9663 -1.42999,-1.923 -0.35488,-0.51573 -0.99532,-0.76398 -1.60698,-0.7331 z m -1.81727,1.44809 c -3e-4,-0.009 0.01,-0.0411 0,0 z"
       id="path16670"
       transform="translate(-3.7)" />
    <path
       style="fill:#000000;stroke-width:1"
       d="m 1065.8169,976.31726 c -5.2576,0.77367 -10.7091,0.21304 -15.8577,1.63385 -3.2733,0.90831 -5.4725,5.49906 -2.8232,8.13538 3.085,2.80405 7.4857,3.28751 11.4801,2.9878 3.0859,-0.29641 6.4633,0.41727 9.3394,-0.96725 2.8475,-2.49056 3.0695,-7.43737 0.2202,-10.04903 -0.7157,-0.64843 -1.2863,-1.70999 -2.3588,-1.74075 z"
       id="path16709"
       transform="translate(-3.7)" />
    <path
       style="fill:#000000;stroke-width:1"
       d="m 1061.1239,975.47959 c -4.2536,0.47811 -8.7565,0.28943 -12.7635,1.96273 -1.0307,0.528 -2.8444,0.72059 -2.4628,2.31379 -1.5829,2.49188 -1.376,6.27074 1.3535,7.89355 3.5201,2.68108 8.1058,2.73269 12.3212,2.5144 3.0821,-0.33526 6.6215,0.42532 9.3196,-1.43432 2.5452,-2.15596 2.7762,-5.81428 1.9715,-8.8346 0.8446,-1.69265 -1.502,-1.8757 -2.1386,-2.98147 -0.9186,-1.65522 -2.6271,-2.12787 -4.3836,-1.65936 -1.0724,0.0751 -2.1448,0.15019 -3.2173,0.22528 z"
       id="path16822"
       transform="translate(-3.7)" />
    <path
       style="fill:#000000;stroke-width:1"
       d="m 1106.8169,833.883 c -6.8139,0.1783 -13.6757,-0.20647 -20.4585,0.53858 -0.9919,0.36956 -1.7794,0.99551 -2.9231,0.78276 -2.854,0.0276 -5.7109,0.0704 -8.5635,-0.0327 -0.8595,-1.64247 -3.2827,-1.22972 -4.7135,-0.81547 -0.9996,2.00842 -0.1799,4.4717 -0.4457,6.66217 0.1906,2.86151 -0.399,5.86442 0.3201,8.63014 2.0084,0.9996 4.4717,0.17988 6.6622,0.44571 6.1465,0 12.2931,0 18.4397,0 0.1333,6.61202 -0.2696,13.25814 0.2295,19.85097 0.1832,0.88204 1.1974,1.23196 0.8593,2.27291 0.2237,15.71812 0.053,31.44011 0.1075,47.15973 0.5153,2.1885 3.2978,0.99904 4.8887,1.29972 3.4642,-0.13828 7.0292,0.27937 10.4298,-0.20995 1.4637,-1.08386 0.431,-3.38665 0.7396,-4.97784 -0.071,-5.84747 0.1412,-11.74626 -0.105,-17.56196 -1.4237,-1.10245 -1.6302,-2.40568 -1.3904,-4.39953 0,-4.70801 0,-9.41602 0,-14.12403 2.4075,-0.24874 1.2161,-3.28117 1.4954,-4.8887 0.056,-6.89584 -0.1195,-13.79731 0.1139,-20.68981 1.0749,-0.36604 1.0373,-1.7306 1.1444,-2.53519 0.9765,0.0898 2.0847,-0.21671 2.5568,-1.08942 8.1496,-0.29059 16.3548,0.0859 24.4753,-0.21188 1.8454,-0.72454 0.7038,-3.2599 1.0196,-4.78373 -0.1951,-3.15977 0.4055,-6.46376 -0.3201,-9.52739 -2.0084,-0.99959 -4.4717,-0.1806 -6.6621,-0.44672 -3.2035,-0.21244 -6.7676,0.66827 -9.5882,-1.3063 -6.0596,-0.30471 -12.2244,0.0217 -18.3117,-0.0421 z"
       id="path28841"
       transform="translate(-3.7)" />
    <path
       style="fill:#000000;stroke-width:1"
       d="m 620.61307,955.51646 c -2.35369,0.16362 -4.81563,-0.14192 -7.10144,0.4714 -1.64862,1.78313 -1.32562,5.16153 0.42408,6.76849 0.43687,1.6362 1.02727,3.0941 1.93819,4.52302 1.07349,1.00431 1.26017,2.57474 1.93235,3.84426 0.27087,1.44611 1.69351,2.28254 2.041,3.72041 0.60933,1.34937 2.68947,2.25671 2.25177,3.85588 -0.84266,0.93272 0.35826,2.10016 1.27763,2.12226 0.72771,1.53927 2.48925,2.33273 2.76009,4.09427 1.40399,2.59011 0.62352,5.7394 0.94938,8.56688 0.18019,2.3776 -0.092,4.86252 0.53376,7.17117 1.79344,1.7824 4.91798,0.2953 6.77899,2.0941 2.12711,0.7225 4.58154,0.6457 6.74862,0.1256 2.0908,-1.1222 1.26804,-3.99311 1.58498,-5.93047 0.23464,-3.96593 -0.0918,-8.05305 0.48114,-11.88475 0.9892,-0.82314 0.7134,-2.59765 1.49326,-3.23289 0.68764,-0.87937 1.69043,-1.13091 2.32482,-2.03157 0.0777,-0.9093 -0.443,-1.53537 -0.0176,-2.49649 0.25472,-0.73855 1.64458,-0.81973 1.54857,-1.94987 1.2594,-0.95976 0.49465,-2.86545 0.98662,-3.94239 1.8266,-0.55161 3.07975,-2.34968 4.16436,-3.83491 1.65418,-3.46976 1.55161,-8.41845 -1.93176,-10.73365 -2.50444,-1.27392 -5.78539,-1.92823 -8.41168,-0.64898 -0.98709,0.62666 -1.70572,1.53794 -2.7531,1.95798 -0.55299,0.82699 -0.27344,2.37927 -1.53686,2.66961 -1.22077,0.77702 0.27926,2.41387 -1.19341,3.02762 -0.32559,1.38138 -1.18979,3.19485 -2.68355,3.46573 -1.07353,-1.06475 -2.63319,-2.18107 -3.11349,-3.53525 0.55853,-1.47625 -0.46735,-2.80946 -1.0427,-3.97743 -0.85102,-1.7685 -2.37751,-3.3534 -4.0154,-4.37116 -2.13926,0.014 -4.27916,0.0635 -6.41858,0.0911 z m 28.76035,15.80987 c -0.0177,0.039 -0.14497,-0.0694 0,0 z m 0.007,10e-4 c 0.25136,0.035 -0.0229,0.01 0,0 z m -6.59907,0.3096 c 1.08921,1.30604 -1.5583,1.26886 -1.10871,-0.24476 0.43079,-0.0886 0.7618,-0.0336 1.10871,0.24476 z m -15.37351,0.26345 c 0.17998,1.10423 -2.53854,0.92733 -0.82221,0.0697 0.23945,-0.15019 0.5606,-0.12016 0.82221,-0.0697 z m 1.19457,2.08131 c 0.40256,0.97164 -1.34658,2.06899 -1.47847,0.75763 0.2334,-0.55822 0.87925,-0.92795 1.47847,-0.75763 z m 3.78467,1.39201 c 0.33894,0.0903 -0.18051,0.10591 0,0 z m -2.40141,1.4551 c 0.61199,1.02508 -1.59872,1.86884 -1.68585,0.58649 0.27655,-0.62232 1.08603,-0.87675 1.68585,-0.58649 z m 1.30848,1.04095 c 0.40255,0.97164 -1.34658,2.06899 -1.47847,0.75764 0.2334,-0.55823 0.87925,-0.92795 1.47847,-0.75764 z m 1.11396,1.52053 c 1.08447,0.76004 -1.16475,2.18441 -1.41888,0.78626 0.19775,-0.57514 0.83871,-0.8859 1.41888,-0.78626 z m -6.63587,3.65441 c -0.004,-0.0417 0.052,-0.14803 0,0 z"
       id="path29147"
       transform="translate(-3.7)" />
    <path
       style="fill:#000000;stroke-width:1"
       d="m 678.79151,955.53398 c -4.26821,0.63725 -8.65428,1.69408 -12.37568,3.96985 -1.44898,0.85612 -2.22766,2.50836 -3.89566,2.97855 -1.58991,1.06789 -3.33534,2.51983 -3.53291,4.51427 -1.19905,1.44453 -1.49913,3.39421 -2.13621,5.11068 -0.27644,4.72361 -0.22484,9.50927 0.23833,14.21924 0.66231,1.5769 1.22504,3.2228 1.99485,4.78882 0.94147,2.26753 3.12512,3.81274 4.84665,5.5003 -0.169,1.48318 1.62777,1.36182 2.28809,2.33015 2.34088,0.65431 4.47493,2.01336 6.83332,2.62516 3.90883,0.023 7.90318,0.3603 11.76175,-0.3341 1.4436,-0.9192 3.33162,-0.9857 4.59254,-2.33312 0.59299,-0.90004 2.2899,-0.86251 2.13388,-2.20865 2.0377,0.0564 3.54041,-1.63483 3.6731,-3.5697 1.37789,-1.57568 2.84627,-3.1544 3.8022,-4.98918 1.92741,-2.50627 0.94195,-5.95119 1.2362,-8.87023 -0.12418,-3.35552 0.27021,-6.80657 -0.20776,-10.09861 -0.67334,-0.84892 -1.45164,-1.59326 -1.81529,-2.66904 -1.5372,-1.95328 -3.12135,-3.98072 -4.73879,-5.73172 -1.10593,-0.602 -2.13905,-1.6881 -3.55664,-1.3224 -3.27192,-2.23899 -7.17639,-3.64416 -11.14197,-3.91027 z m -1.09001,12.41482 c 3.84751,-8.6e-4 7.26143,1.90953 10.66939,3.42426 0.0273,1.39669 -0.27522,3.51271 1.40838,4.04053 0.11092,2.62212 0.22722,5.38028 -0.0625,7.92859 -1.2597,0.25251 -1.32631,1.75393 -1.39143,2.68706 -3.15291,1.04038 -5.80156,3.7383 -9.35215,3.4593 -5.51543,0.0819 -11.03592,-4.03901 -11.58592,-9.71782 -0.41389,-2.63991 -0.83934,-5.89192 1.61925,-7.74751 1.58123,-1.31872 3.68869,-1.81167 5.1872,-3.2788 1.01561,-0.72799 2.30113,-0.80671 3.50779,-0.79561 z m 16.86892,6.05758 c 1.01076,0.48792 -1.90593,1.54488 -0.4498,0.2173 0.13233,-0.0821 0.28241,-0.20695 0.4498,-0.2173 z m -0.42526,7.45018 c 1.67893,1.32454 -2.38173,-0.34264 0,0 z m -1.39377,2.88684 c 1.02182,0.002 1.21496,1.60424 0.13844,1.49599 -0.53539,-0.10929 -1.05115,-1.73697 -0.13844,-1.49599 z m -1.0094,1.55616 c 1.42695,0.22156 0.28906,2.29737 -0.39744,0.97549 -0.29709,-0.3309 -0.43572,-1.52676 0.39744,-0.97549 z m -26.18486,1.38384 c 0.63168,1.34112 -2.87859,1.81249 -1.39961,0.22957 0.42013,-0.29078 0.90636,-0.46509 1.39961,-0.22957 z m 24.98853,1.3079 c 1.42695,0.22156 0.28907,2.29736 -0.39744,0.97549 -0.29709,-0.3309 -0.43572,-1.52676 0.39744,-0.97549 z"
       id="path29186"
       transform="translate(-3.7)" />
    <path
       style="fill:#000000;stroke-width:1"
       d="m 737.14695,955.58422 c -4.04556,-0.1449 -6.81252,4.08269 -6.40581,7.83071 -0.24431,6.02586 0.27542,12.10064 -0.40824,18.09654 -0.37606,1.20563 -0.7782,2.74094 -1.55032,3.58489 -0.84766,-0.58105 -2.16082,-0.36213 -2.72503,0.48075 -3.11567,-2.91312 -2.92766,-7.70332 -3.28658,-11.55038 -0.44118,-5.03027 -0.0269,-10.71767 -3.27103,-14.94348 -2.42485,-1.52237 -5.42077,-1.9469 -8.18269,-2.59828 -1.90421,-0.37308 -5.20817,0.0345 -4.93836,2.64501 0.45853,1.24048 -0.27234,1.88551 -0.58648,2.96687 0.43524,0.86535 1.27107,1.30883 1.01365,2.42809 0.24707,7.03483 0.0791,14.08058 0.32346,21.11292 0.41527,1.3486 2.19526,0.67299 2.01763,2.45282 1.37378,4.1318 3.50474,8.39395 7.15344,10.94103 9.35032,5.25909 22.02859,1.03539 27.43815,-7.93206 2.66363,-3.90978 2.64541,-8.76413 2.52193,-13.29632 -0.0777,-5.98458 2.10082,-12.03968 0.54452,-17.96887 -1.24179,-3.27039 -5.29383,-3.65403 -8.27557,-4.1854 -0.4591,-0.0486 -0.92095,-0.074 -1.38267,-0.0648 z"
       id="path29225"
       transform="translate(-3.7)" />
    <path
       style="fill:#000000;stroke-width:1"
       d="m 505.57927,955.49777 c -2.03959,0.13431 -4.60825,-0.21556 -6.09846,1.45569 -1.80273,0.05 -3.81883,0.73254 -4.70938,2.35468 -0.90098,0.61029 -1.58267,1.38175 -2.64675,1.61691 -0.54067,0.90583 -0.43695,1.6814 -1.50125,2.21566 -0.85,0.78954 -1.24944,1.87493 -2.3839,2.3763 -1.11599,1.12297 -1.12102,2.81846 -2.10525,4.01599 -0.35131,1.47374 -2.02227,2.28468 -1.68877,3.99555 0.10694,3.87432 -0.28054,7.84615 0.49419,11.65777 1.08802,1.41129 0.47673,3.45831 1.79274,4.8151 0.68677,1.09073 2.09611,1.61994 2.14731,3.0434 0.86381,1.36556 1.68729,2.73157 3.14913,3.60124 1.36524,1.17599 3.18673,1.5268 4.34545,2.9733 1.34746,1.21884 3.29418,0.76114 4.80867,1.63384 1.09904,0.01 1.16607,1.7182 2.45808,1.6882 3.39604,0.4349 6.96409,0.5587 10.30256,-0.2763 1.31405,-0.4569 1.70354,-1.9829 3.12984,-2.2133 1.1113,-1.22706 2.77693,-1.56656 3.88631,-2.83197 2.44727,-2.4702 5.44011,-4.63238 7.09561,-7.74341 0.20981,-1.14973 1.2244,-1.90822 1.45393,-3.09831 1.0813,-1.12165 1.87246,-2.44348 1.47182,-4.07716 -0.2403,-4.06988 0.27223,-8.24779 -0.54946,-12.25434 -1.21497,-1.46376 -1.93777,-3.26079 -2.61696,-5.00378 -1.897,-2.27578 -3.9239,-4.71567 -6.60434,-6.05349 -1.51644,-0.68571 -2.62592,-2.35635 -4.48389,-2.38682 -1.56211,-0.2679 -2.73341,-1.59576 -4.4319,-1.36982 -2.23605,-0.10657 -4.47687,-0.13811 -6.71533,-0.13493 z m -10.44976,4.43833 c -0.0257,-0.0303 -0.0241,-0.18254 0,0 z m 19.20317,2.10817 c 1.49406,0.13203 0.24822,1.79012 -0.76008,1.33241 -0.71041,-0.12354 0.292,-1.41923 0.76008,-1.33241 z m -11.85288,0.052 c 2.19858,1.30569 -1.04947,1.99142 -0.53975,0.23015 0.1333,-0.12095 0.33829,-0.35599 0.53975,-0.23015 z m -2.7297,1.1753 c 1.69675,0.8261 -0.0746,2.86546 -0.67703,0.87505 -0.0539,-0.37214 0.25737,-0.93535 0.67703,-0.87505 z m 15.98569,-0.0111 c 1.70926,0.50548 -1.39026,2.29575 -0.89023,0.71499 0.19796,-0.32627 0.47589,-0.70497 0.89023,-0.71499 z m -18.45604,1.48314 c 2.01936,0.60884 -0.0865,2.35839 -0.87505,0.67703 -0.0689,-0.41219 0.5167,-0.73791 0.87505,-0.67703 z m -7.56292,0.48484 c -0.0648,-0.0566 -0.0629,-0.36057 0,0 z m 17.25504,2.10584 c 1.87438,0.14139 4.03784,-0.26086 5.76317,0.23541 0.4415,1.03301 1.84049,0.75008 2.48261,1.1461 0.37085,0.95797 1.4445,1.1348 1.82253,2.06728 1.18702,0.4428 0.0571,2.36177 1.46329,2.87983 1.39522,0.62868 0.20551,3.06022 0.59933,4.39861 -0.0954,1.71907 0.18735,3.74911 -0.13377,5.28242 -1.46455,0.18197 -1.18943,2.00504 -1.54974,2.77293 -3.86612,1.51218 -8.08884,2.91976 -12.28806,2.32607 -3.55278,-1.03322 -6.51412,-4.36727 -6.65983,-8.08515 -0.32012,-3.06481 -0.69978,-6.28954 -0.60809,-9.28322 0.8195,-0.44018 1.0411,-1.2822 1.99485,-1.50534 0.51724,-0.61931 0.57991,-1.31308 1.36632,-1.66773 0.65375,-1.17482 2.51163,-0.24313 3.63162,-0.56545 0.70526,-6e-4 1.41052,-10e-4 2.11577,-0.002 z M 489.6777,993.6716 c -0.006,-0.0404 0.0403,-0.14306 0,0 z m 25.4792,6.3923 c -0.32436,-0.42011 -0.17533,-0.5019 0,0 z"
       id="path29264"
       transform="translate(-3.7)" />
    <path
       style="fill:#000000;stroke-width:1"
       d="m 562.05785,952.18684 c -1.67983,-0.0646 -3.63828,0.64043 -4.082,2.41368 -1.78327,0.91726 -1.31127,3.27154 -2.38564,4.72398 -0.61895,1.31755 0.30011,3.1139 -1.08417,3.99788 -0.91528,1.47735 -0.33829,3.41401 -1.47789,4.78414 -0.4239,0.53256 -0.0789,1.98814 -0.61394,2.09241 -0.64413,-0.50103 -0.94564,-1.66236 -1.35696,-2.40142 -0.0509,-1.76235 -0.0826,-3.74536 -1.2232,-5.15916 0.21048,-2.97034 -1.64134,-5.95336 -4.28003,-7.17505 -4.02295,0.19189 -8.23313,-0.43358 -12.14202,0.54793 -1.75933,0.96721 -0.82524,3.40599 -1.06009,5.03352 0.0365,1.02085 -0.16996,2.57265 1.19736,2.80628 0.19106,1.50579 0.34175,3.14658 1.62276,4.16962 0.0446,1.79929 0.14196,3.65176 1.17413,5.19655 0.12895,1.52683 0.44186,3.22806 1.59179,4.24498 -0.091,1.45174 0.50135,2.84599 1.14667,4.04812 0.0397,1.49981 0.63052,3.02962 1.55208,4.13691 -0.14176,1.43653 0.81723,2.63121 1.17822,3.86003 -0.1233,1.83807 0.15352,3.7199 1.43349,5.12353 0.78528,1.0844 9.8e-4,2.6447 1.32367,3.35415 0.63522,1.33649 1.41429,2.57908 2.83076,3.14388 2.78141,0.9334 5.86721,0.4309 8.76801,0.5567 1.69493,0.2148 3.63842,-0.4482 4.0008,-2.31031 0.59535,-1.52744 1.40742,-2.97114 1.4148,-4.66031 1.01766,-1.46253 1.52679,-3.19283 1.40577,-4.99824 -0.0998,-0.80341 -0.0539,-1.53619 0.8794,-1.16623 1.34115,1.35652 -0.62404,4.1712 1.6689,4.90097 0.4836,0.48112 0.233,2.05835 0.84643,2.86289 -0.35727,1.36316 1.29483,1.5095 1.48372,2.64793 0.31987,1.1489 1.23403,1.6915 2.20398,2.1117 2.56555,1.1502 5.55108,0.5344 8.28609,0.5467 1.58029,0.015 3.20206,-1.0241 3.22506,-2.70981 1.76045,-1.52012 1.08683,-4.1038 2.26589,-5.91388 0.29753,-1.55409 0.82627,-2.99398 1.50242,-4.39568 0.27151,-1.18306 1.72751,-1.91666 1.53747,-3.33079 -0.4458,-1.73638 1.18603,-2.90183 1.16362,-4.5867 -0.124,-1.24807 0.30337,-2.26252 1.03452,-3.23032 0.85099,-1.8085 0.0727,-3.95678 1.31608,-5.58559 0.36903,-1.46888 0.45494,-2.99034 1.42355,-4.23914 0.75622,-1.61936 0.1064,-3.539 1.25241,-4.9845 1.18797,-2.65179 -0.67698,-5.93639 -3.18417,-7.00097 -1.61573,-0.55586 -3.57177,0.4977 -4.86709,-0.85694 -3.12677,-1.44454 -7.87435,-0.0454 -8.37079,3.76014 -0.33073,0.93456 0.31,2.2235 -0.76231,2.75833 -0.21872,0.98557 -0.17649,1.99816 -0.52573,3.02703 -0.25338,1.54121 -1.62847,2.73254 -1.56317,4.33669 -0.75476,0.33506 -0.30286,-1.16311 -0.69455,-1.58887 -1.0293,-1.72608 -0.62221,-4.00731 -2.12044,-5.47811 -0.4164,-1.17795 -0.44149,-2.71196 -1.34762,-3.79577 -0.41259,-0.94921 -1.56739,-1.53551 -1.96156,-2.35527 0.58378,-3.05571 -3.61326,-3.29518 -5.62648,-3.26361 z m 23.30211,3.43535 c 0.009,-0.0176 0.11974,-0.0213 0,0 z m -21.34172,5.10309 c 1.47761,0.66062 -1.05892,2.43786 -1.28979,0.99713 0.092,-0.59011 0.6895,-1.08 1.28979,-0.99713 z m 18.23991,0.009 c 1.43914,0.0958 0.96335,2.70747 -0.35341,1.27402 -0.4511,-0.36088 -0.38641,-1.40971 0.35341,-1.27402 z m 3.28873,0.11449 c 0.99684,1.22468 -1.92832,2.34825 -0.84292,0.48659 0.20937,-0.24418 0.50947,-0.50388 0.84292,-0.48659 z m -20.66936,1.19574 c 1.49406,0.13203 0.24822,1.79012 -0.76008,1.33241 -0.71041,-0.12354 0.292,-1.41923 0.76008,-1.33241 z m -20.96261,0.0409 c 1.57348,0.53357 -1.29331,2.59347 -0.8102,0.7407 0.20429,-0.27746 0.40109,-0.75958 0.8102,-0.7407 z m 17.05293,1.17706 c 2.37644,1.13019 -1.14265,1.71153 -0.29032,0.14954 0.0874,-0.0579 0.18406,-0.13209 0.29032,-0.14954 z m 5.40918,2.67012 c 1.97021,0.2552 -0.88943,2.18484 -0.95155,0.79202 0.13501,-0.40768 0.51035,-0.76601 0.95155,-0.79202 z m 14.83726,0.0578 c 2.17786,1.4373 -1.79363,1.00274 -0.23424,-0.0356 0.0768,-0.0249 0.16379,-0.0514 0.23424,0.0356 z m -39.03895,0.42701 c 0.1206,1.02177 -2.04841,1.23124 -1.59296,0.23833 0.40864,-0.41319 1.08924,-0.47776 1.59296,-0.23833 z m 37.37823,4.90155 c 2.00483,0.95884 -0.58176,1.10917 -0.10865,0.0158 0.0352,-0.008 0.0717,-0.0298 0.10865,-0.0158 z m 9.29724,2.27057 c -0.16312,0.0375 0.0865,-0.034 0,0 z m -42.26167,0.45388 c 1.23619,1.1 -2.36331,1.19414 -0.0368,-0.0123 z m 23.67186,2.65611 c 1.49406,0.13202 0.24823,1.79012 -0.76008,1.3324 -0.71041,-0.12354 0.29201,-1.41922 0.76008,-1.3324 z m 12.43936,0.44687 c 1.06035,1.59608 -2.14475,0.41387 -0.82895,-0.27996 0.33169,-0.12793 0.55513,0.17602 0.82895,0.27996 z m -35.16432,0.75062 c 2.01899,0.32032 -1.5184,2.11812 -0.85227,0.50295 0.19122,-0.27606 0.50611,-0.50615 0.85227,-0.50295 z m 30.87786,0.0321 c 1.69048,0.83297 -0.0832,2.85837 -0.68228,0.87271 -0.0543,-0.37152 0.26061,-0.94344 0.68228,-0.87271 z m -9.9544,0.33296 c 0.16822,1.57975 -2.48309,0.81193 -0.8483,0.0565 0.23321,-0.13906 0.59653,-0.12614 0.8483,-0.0565 z m -22.4732,1.50125 c 0.35383,0.73795 -1.2865,1.54167 -1.39786,0.45155 0.28524,-0.46233 0.89913,-0.63224 1.39786,-0.45155 z m 35.11409,1.16596 c 1.55379,0.5697 -0.47981,1.71221 -0.91945,0.55493 -0.57085,-0.71931 0.45349,-0.7002 0.91945,-0.55493 z m -8.16985,2.34942 c 1.71562,0.14683 0.13425,2.6042 -0.8324,1.55967 -0.062,-0.64325 0.11803,-1.39498 0.8324,-1.55967 z m 6.6096,1.66891 c 1.42425,0.28843 0.32061,1.58814 -0.39372,0.60867 -0.38921,-0.60635 -0.49049,-0.73068 0.39372,-0.60867 z m -0.72785,4.16202 c 1.06035,1.59608 -2.14474,0.41387 -0.82895,-0.27995 0.33169,-0.12793 0.55514,0.17602 0.82895,0.27995 z m -36.16554,0.33355 c -0.0139,0.011 -0.12612,-0.0389 0,0 z m 22.60989,0.30084 c -0.0367,0.0173 -0.24627,-0.0903 0,0 z m 1.3114,3.8904 c -0.021,0.012 -0.16721,-0.0539 0,0 z m 7.2282,0.48834 c 0.31602,0.99981 -1.48006,1.87808 -1.36923,0.57188 0.27595,-0.48113 0.83694,-0.7029 1.36923,-0.57188 z m -19.82293,1.12448 c 1.73611,0.15314 0.97817,2.96677 -0.62387,1.7647 -0.41635,-0.45876 -1.67108,1.51323 -2.19054,-0.14779 -0.49332,-1.26258 1.65148,-1.52115 1.92592,-0.98896 -0.29125,-0.29375 0.67449,-0.73509 0.88849,-0.62795 z m -1.03277,0.6998 c 0.0194,-0.0203 0.0304,-0.12885 0,0 z m 0.15538,-0.0274 c 0.0646,0.12189 -0.0419,-0.0943 0,0 z m 0.0648,0.16648 c 0.0361,0.10772 -0.0203,-0.0928 0,0 z m -0.26111,0.0783 c 0.0122,-0.0284 0.005,-0.1318 0,0 z m 6e-4,0.13611 c 0.004,-0.0302 -0.0117,-0.11771 0,0 z m 0.008,0.0561 c 0.002,-0.0231 -0.0223,-0.12478 0,0 z m 0.29499,-0.0193 c 0.01,0.097 0.003,-0.0843 0,0 z m -0.27805,0.0935 c -3e-4,-0.0238 -0.0324,-0.11164 0,0 z m 0.0263,0.0794 c -3.3e-4,-0.0187 -0.0417,-0.0996 0,0 z m 0.0695,0.14545 c -0.004,-0.0185 -0.0492,-0.078 0,0 z m 0.14545,0.0251 c -0.015,0.0826 0.0272,-0.0755 0,0 z m 17.84211,3.03522 c -0.0377,0.0875 0.0212,-0.0818 0,0 z"
       id="path29303"
       transform="translate(-3.7)" />
    <path
       style="fill:#000000;stroke-width:1"
       d="m 444.29961,955.17999 c -4.28459,0.55933 -6.45576,5.27159 -6.69188,9.16381 -0.66241,9.70854 -0.85783,19.47506 -0.33394,29.19433 0.4116,2.6624 1.44868,5.43429 3.33052,7.39847 3.42618,1.5783 7.56363,1.6696 11.15073,0.5812 2.56542,-1.015 2.91859,-4.17885 2.25363,-6.51902 -0.17568,-2.17061 -0.29338,-4.4603 -0.1104,-6.57747 0.83136,-0.38934 1.0138,-1.55816 1.77755,-0.19429 0.97575,0.70621 1.50373,1.22649 1.53805,2.45143 1.79186,5.58202 6.77119,9.83845 12.33363,11.37445 3.07873,0.084 6.68703,0.6253 9.25191,-1.4298 0.78108,-1.9276 0.16794,-4.3239 0.40406,-6.42773 -0.0147,-11.55256 0.68037,-23.15903 -0.51879,-34.67343 -0.24877,-1.62401 -0.10826,-4.42715 -2.54607,-4.00647 -3.74985,0.11186 -7.80182,-0.99293 -11.37175,0.5571 -1.42935,0.56479 -2.35001,1.8647 -1.90882,3.43987 -0.0605,3.5371 0.32068,7.37541 -0.007,10.7303 -0.95004,1.09333 -2.04843,-0.42525 -3.24317,-0.39547 -1.00859,-0.16495 -1.94288,0.49107 -2.57608,1.21269 -1.77875,-2.55896 -3.93742,-5.16583 -6.08795,-7.20309 2.62073,-0.74432 3.70128,-4.79494 1.12681,-6.23399 -2.43597,-1.11733 -5.07256,-2.25626 -7.77087,-2.44289 z m 26.25028,21.52397 c 1.99975,0.28885 0.10719,3.20032 -0.96793,1.48081 -0.40178,-0.66969 0.19139,-1.58219 0.96793,-1.48081 z m 0.46147,7.63301 c -1.6125,0.60552 -0.0806,0.12161 0,0 z m -26.25203,8.81474 c -0.0219,0.90968 0.50172,2.28552 0.12501,2.93066 -1.2469,0.3038 -0.31061,-1.53989 -0.31602,-2.15316 0.0552,-0.22108 0.13204,-0.59124 0.19101,-0.7775 z"
       id="path29342"
       transform="translate(-3.7)" />
    <path
       style="fill:#000000;stroke-width:1"
       d="m 398.13235,953.8645 c -3.25116,-0.10255 -4.94333,3.4133 -5.69892,6.08795 -0.77025,5.94882 0.0277,11.98805 -0.0958,17.97062 0.29017,6.39272 -1.55888,12.84387 -0.23249,19.22361 0.84218,3.62602 4.7673,5.47382 8.24579,5.08202 3.45622,0.1901 7.74947,-1.8069 7.95838,-5.66675 0.0918,-1.24815 -0.32341,-2.82213 -0.0409,-3.81972 1.0128,-0.36126 1.36407,-0.78959 1.81786,0.42117 1.57667,1.58697 4.58522,2.00262 5.88583,-0.14195 0.59584,-1.06696 1.03642,0.83691 1.78164,0.88614 0.0205,0.85687 0.91379,1.29994 1.44459,1.61984 -0.31145,1.71833 1.46034,2.58711 2.93065,2.3117 1.43187,0.12128 3.92344,0.2244 3.56796,-1.89638 0.14109,-1.23653 -0.16948,-2.75185 -1.45452,-3.22038 -0.36814,-0.98772 -1.48409,-1.17217 -1.86634,-2.12629 -1.18702,-0.4428 -0.0571,-2.36176 -1.46328,-2.87983 -0.97993,-0.10316 -0.81327,-1.53958 -1.88621,-1.68409 -0.17404,-1.12917 -1.85459,-0.882 -1.43465,-2.14848 0.0366,-1.27243 -1.36687,-1.51723 -1.58537,-2.64325 -1.39533,-0.49958 -1.08174,-1.68225 -1.02556,-3.00036 0.20738,-1.45059 -0.28204,-3.30994 0.32692,-4.48137 0.81259,-0.47556 1.1134,-1.31892 1.93118,-1.78397 0.19536,-0.64213 0.88006,-1.36511 1.18231,-0.37911 1.68935,1.98725 4.45396,0.28364 6.15747,-0.7921 3.92272,-2.70273 7.49488,-7.7148 5.74564,-12.65082 -1.74712,-3.66461 -6.6359,-5.34476 -10.18865,-3.23265 -4.81967,2.4872 -7.30731,7.91936 -10.66881,11.6455 -1.29889,-0.51882 -0.66021,-1.9635 -0.99071,-3.0948 -0.62977,-4.01036 -2.9347,-8.82365 -7.40403,-9.43568 -0.97224,-0.15044 -1.95744,-0.18851 -2.93999,-0.17057 z m 1.23546,43.13263 c -0.0239,0.15639 0.009,-0.45979 0,0 z"
       id="path29455"
       transform="translate(-3.7)" />
    <path
       style="fill:#000000;stroke-width:1"
       d="m 398.62536,952.79668 c -3.13379,-0.20867 -5.67048,2.17934 -6.60901,5.01138 -1.59118,3.76525 -0.73135,8.01112 -1.03317,11.97787 0.0368,8.10166 -0.26752,16.18606 -0.39068,24.21832 -0.0687,3.53114 1.58617,7.36355 5.10785,8.62905 4.32472,1.9088 10.28917,0.6843 12.93433,-3.3948 0.9123,-1.50574 0.64957,-3.80855 0.84584,-5.11302 1.63454,2.12561 5.04669,1.76928 6.91685,0.14896 0.87026,0.91937 1.7074,1.78712 2.01238,3.02236 1.68013,2.08665 5.10118,2.23276 7.32342,0.98896 2.23381,-1.84094 0.94704,-5.34146 -1.04094,-6.86784 -1.29253,-0.9461 -1.84247,-2.39088 -2.51767,-3.75307 -1.29771,-1.80718 -3.31846,-3.07437 -4.01833,-5.2573 -0.62945,-1.30785 -2.44771,-2.01981 -2.01624,-3.72678 0.22353,-1.76815 -0.77494,-4.05037 1.04305,-5.18376 0.46739,-0.68363 0.95861,-1.07261 1.56201,-0.35283 1.5588,0.83355 3.45624,0.18861 5.03182,-0.23424 1.87724,-1.45848 3.8981,-2.8979 5.30753,-4.90973 2.05352,-2.35566 3.19033,-5.46455 2.64559,-8.59627 -0.32274,-4.25916 -5.14132,-6.9381 -9.09805,-6.44662 -2.46494,0.41401 -4.77449,1.51587 -6.37053,3.48992 -2.4476,2.38335 -4.50484,5.11252 -6.49758,7.87461 -0.61571,-4.53402 -2.74464,-9.7551 -7.56818,-11.10517 -1.15474,-0.34467 -2.36867,-0.46135 -3.57029,-0.42 z m 25.85657,19.08108 c -0.0157,0.0626 0.0144,-0.0789 0,0 z"
       id="path29494"
       transform="translate(-3.7)" />
    <path
       style="fill:#000000;stroke-width:1"
       d="m 416.85826,977.90087 c -1.90805,-0.0794 -2.3427,2.45168 -0.94106,3.46807 1.65654,2.26107 3.17684,4.62814 5.02131,6.75796 1.06244,1.75715 2.19915,3.46207 3.70055,4.86067 0.68005,1.15623 1.57171,2.93162 0.87903,4.07501 -2.30858,1.45727 -5.93741,1.00667 -6.91441,-1.81496 -0.78954,-1.96067 -3.80155,-2.33077 -4.73741,-0.32712 -0.54197,1.27804 0.28685,2.67069 1.30265,3.30626 0.36501,1.04271 1.64818,0.88937 2.0591,1.88384 0.80257,0.488 0.91923,1.8346 2.14966,1.7898 3.9453,0.2115 7.95826,0.1884 11.8794,0.022 1.79254,-0.7367 0.79469,-3.19218 0.98404,-4.74224 0.0351,-1.37571 -1.31584,-1.81236 -1.95396,-2.79046 -1.23494,-0.40285 -0.31055,-2.49043 -1.83948,-2.88918 -6.8e-4,-1.08507 -0.23729,-2.71567 -1.65838,-2.84887 -0.50541,-0.78054 -1.2791,-1.13626 -1.53805,-2.06028 -1.32383,-0.45006 -0.31819,-2.06414 -1.36223,-2.85471 -0.9104,-0.21954 -1.14881,-0.9435 -1.86283,-1.44868 -0.46356,-0.58675 -0.85447,-1.66866 -1.83947,-1.73608 -0.37411,-0.86331 -1.30903,-1.03183 -1.48782,-2.00303 -0.43375,-0.55267 -1.17579,-0.69798 -1.84064,-0.6484 z"
       id="path29533"
       transform="translate(-3.7)" />
    <path
       style="fill:#000000;stroke-width:1"
       d="m 418.41501,974.25055 c -2.08178,0.3218 -1.46259,4.51619 0.74411,3.51567 1.34469,-0.68182 1.0455,-3.64359 -0.74411,-3.51567 z"
       id="path29572"
       transform="translate(-3.7)" />
    <path
       style="fill:#000000;stroke-width:1"
       d="m 417.92958,971.70544 c -2.28677,0.70696 -3.87909,4.0119 -2.24779,6.03246 1.39576,1.13885 2.71729,-0.58902 2.62865,-1.95338 0.43477,-0.74144 1.85845,-0.44204 1.9417,-1.61984 0.25495,-1.24494 -1.09845,-2.58063 -2.32256,-2.45924 z"
       id="path29611"
       transform="translate(-3.7)" />
    <path
       style="fill:#000000;stroke-width:1"
       d="m 762.70501,542.13678 c -0.99975,-0.13734 -1.82716,0.57117 -2.30795,1.24773 -1.27814,0.15865 -1.13979,1.65765 -2.18762,2.06846 -0.38762,0.92807 -1.87886,0.87363 -1.94988,2.11109 -1.73869,1.0366 -1.57665,3.95288 0.0532,4.95705 0.10784,1.31931 1.67886,1.17024 2.10818,2.20515 0.83562,0.73239 2.20394,0.11532 2.53986,1.36281 0.90128,0.45865 1.24383,1.56534 2.23143,1.87335 0.3152,1.04681 1.4156,1.32232 1.90081,2.23785 1.09855,0.29904 1.13146,1.90102 2.49897,1.84123 1.06967,-0.31244 1.39244,0.75805 2.16834,1.1566 0.0847,1.47882 1.80489,1.57365 2.81265,1.65956 0.41658,0.83947 1.31136,1.06744 1.7279,1.90022 0.67915,0.76878 2.175,-0.14744 2.31146,1.09001 0.50567,0.76091 1.50909,0.63084 1.84707,1.53338 0.83562,0.7324 2.20394,0.11532 2.53986,1.36281 0.98832,0.53603 1.3589,1.94752 2.7373,1.78923 1.11647,-0.31173 0.89653,1.55465 2.12803,1.47263 0.366,0.79842 1.43172,0.93761 1.50359,1.89204 0.65189,1.3581 2.5315,0.18694 2.99316,1.55734 0.97197,0.38511 0.87581,1.96432 2.20865,1.94286 0.36579,0.91454 1.33474,1.11024 1.54681,2.10934 0.61932,0.51724 1.31308,0.57991 1.66773,1.36632 1.18702,0.4428 0.0571,2.36176 1.46329,2.87983 0.89447,0.0726 1.0461,1.15341 1.83655,1.41772 0.0816,1.31213 1.58597,1.22777 2.07254,2.21274 0.93574,0.31504 0.67619,1.67771 1.77229,1.89029 -0.34909,1.47167 0.42732,3.28095 2.19931,2.80564 2.21972,-0.67861 2.09812,0.94866 2.00828,2.60762 -0.15346,1.12303 0.58131,2.03055 1.26,2.69116 0.24293,1.17851 1.67374,0.98744 2.06437,2.0042 0.63512,0.77679 2.41654,-0.0305 1.96029,1.43241 0.0487,1.53572 -0.11842,3.57426 1.27704,4.46686 -0.20115,1.21684 0.52872,2.36716 1.55616,2.78987 0.24598,0.96595 1.5167,1.09709 1.16537,2.22851 -0.11186,1.03058 0.98951,1.53059 1.46269,2.00245 -0.0539,0.85736 0.38957,1.75703 1.194,2.11519 -0.17454,1.12798 0.34314,2.29776 1.20158,2.84653 -0.18758,1.15134 0.44245,2.39219 1.49541,2.69174 -0.16987,1.08473 0.40644,2.16352 1.19633,2.69174 -0.18758,1.15134 0.44245,2.39218 1.49541,2.69173 -0.16987,1.08473 0.40644,2.16353 1.19633,2.69174 -0.18759,1.15134 0.44245,2.39219 1.49541,2.69174 -0.16988,1.08473 0.40644,2.16352 1.19632,2.69173 -0.19776,1.20826 0.48346,2.46325 1.6432,2.71744 0.26875,0.82007 1.29875,0.84475 1.33652,1.76879 1.07281,1.2704 3.16989,0.92506 4.5575,0.51522 0.99676,-2.00965 0.18416,-4.47193 0.44529,-6.66392 -0.29063,-1.95537 0.63431,-4.47705 -0.84835,-6.06984 -0.83081,-0.75575 -0.0914,-2.42515 -0.34757,-3.50253 0.52723,-1.77145 -0.5768,-3.13977 -1.49332,-3.86994 -0.19469,-1.54155 0.58199,-3.94702 -1.19608,-4.7865 0.17418,-1.1788 -0.32414,-2.56271 -1.49541,-2.85529 0.0803,-1.38479 0.0795,-3.15466 -1.19866,-3.88398 0.0842,-1.04235 -0.24757,-2.3533 -1.4183,-2.61405 0.0733,-1.09971 -0.46162,-2.21009 -1.27344,-2.76942 0.20115,-1.21684 -0.52872,-2.36716 -1.55616,-2.78988 -0.25301,-0.9692 -1.52327,-1.10436 -1.16478,-2.24603 0.10795,-1.18713 -1.12493,-1.49508 -1.72498,-2.0854 -0.55012,-0.58478 -1.20856,-0.85867 -0.96735,-1.80092 0.10444,-1.27329 -1.5671,-1.46707 -1.19516,-2.72737 0.11864,-1.17592 -1.16094,-1.45212 -1.69927,-2.03282 -0.49782,-0.66173 -1.26697,-0.86255 -0.99246,-1.85524 0.11123,-1.07812 -1.06616,-1.47231 -1.56259,-1.97382 -0.24744,-0.97643 -1.34429,-1.1023 -1.6835,-2.00245 -0.67038,-0.32701 -1.12828,-0.51672 -0.94223,-1.37157 0.0303,-1.29759 -1.35249,-1.55866 -1.81201,-2.57199 -0.94503,-0.29862 -1.02411,-1.25878 -1.84531,-1.72206 -0.60608,-0.29667 -0.77831,-1.27046 -1.61925,-1.3558 0.0591,-1.10253 -0.42455,-2.23381 -1.32659,-2.76242 -0.18487,-1.24599 -1.57505,-1.28988 -2.13856,-2.24194 -0.87956,-0.31598 -0.68176,-1.69947 -1.78689,-1.85232 -0.22157,-1.1174 -1.63839,-0.92162 -1.76529,-2.01939 -0.7703,-0.46523 -1.09373,-1.18631 -1.80968,-1.7133 -0.90997,-0.12241 -0.75904,-1.52881 -1.80851,-1.65079 -0.26973,-1.16987 -1.67462,-0.96264 -2.0667,-1.99543 -0.86021,-0.51677 -0.93907,-1.91314 -2.15666,-1.98902 -0.24011,-0.85983 -1.3182,-0.88288 -1.35756,-1.82253 -0.65188,-1.35809 -2.53149,-0.18693 -2.99315,-1.55733 -0.97197,-0.38511 -0.87582,-1.96432 -2.20865,-1.94286 -0.20511,-0.90332 -1.33617,-0.92767 -1.378,-1.88328 -0.69519,-1.35053 -2.56726,-0.20672 -3.07376,-1.60815 -0.67082,-0.78707 -2.20233,0.15781 -2.30971,-1.08359 -0.58323,-1.35169 -2.46493,-0.19444 -2.8956,-1.46153 -0.67753,-0.44481 -1.28633,-0.67151 -1.75653,-1.36806 -0.81328,-0.59494 -2.1448,-0.0793 -2.41193,-1.3558 -0.76875,-0.79137 -2.1514,-0.0716 -2.56264,-1.24306 -1.01786,-0.91641 -2.84599,-0.0936 -3.69939,-0.86921 -0.42987,-0.81898 -1.31977,-1.05156 -1.71095,-1.89029 -0.67921,-0.50715 -1.58287,-0.41025 -2.37806,-0.41883 z"
       id="path29687"
       transform="translate(-3.7)" />
    <path
       style="fill:#000000;stroke-width:1"
       d="m 606.12512,620.79357 c -1.29919,-0.12458 -1.43144,1.59471 -2.66837,1.35112 -1.26849,0.051 -1.39806,1.47892 -2.43939,1.83539 -0.58147,1.15752 -2.19676,1.00392 -3.03346,2.05677 -1.33507,1.10095 -2.56141,2.57412 -2.99724,4.21051 -0.77429,0.39587 -1.02162,1.23559 -1.92301,1.40195 -0.62897,0.5584 -0.5647,1.41811 -1.40895,1.75535 -0.7324,0.83562 -0.11533,2.20395 -1.36281,2.53986 -0.53604,0.98832 -1.94752,1.35891 -1.78924,2.7373 0.29595,1.10895 -1.56938,0.91564 -1.46737,2.16075 -1.02367,0.33592 -1.19178,1.67492 -1.37098,2.44523 -1.29901,0.24287 -1.38653,1.75151 -1.40546,2.75015 -1.46423,0.40324 -0.84905,2.19228 -1.38734,3.04573 -1.87502,2.58288 -1.89376,6.03242 -2.5318,9.0654 -1.12709,7.54543 -0.86168,15.23327 -0.41201,22.82353 0.46025,2.79785 0.0888,5.90497 1.41043,8.47895 0.47789,0.71037 0.86594,1.70575 1.82136,1.864 0.1574,1.10486 1.38966,1.26701 1.77639,2.20865 1.48835,0.86862 4.02773,0.65467 4.64453,-1.17763 1.45077,-2.77395 1.67146,-6.06044 2.3544,-9.09378 0.43264,-2.23063 0.26543,-4.58992 0.42729,-6.79086 2.09432,-1.29967 1.14713,-4.27622 1.43583,-6.31343 0.25716,-0.73952 1.19762,-1.36125 1.0684,-2.36754 0.25475,-1.92927 -0.0809,-4.12554 0.24476,-5.87532 1.542,-0.24193 1.17904,-2.06555 1.54039,-2.99374 1.38767,-1.30971 0.81706,-3.51908 1.08125,-5.14807 1.61298,-0.61911 0.86736,-2.70446 1.29446,-3.81972 1.29415,-0.27179 1.32519,-1.7999 1.3926,-2.77527 1.32025,-0.34666 0.83315,-2.10725 1.51527,-2.69933 0.78729,-0.36446 0.89924,-1.34057 1.91424,-1.17413 1.97503,-0.95689 2.1182,-3.59304 2.73146,-5.46408 0.62708,-3.01962 0.12186,-6.2928 0.50178,-9.22948 1.77027,-1.23012 0.80678,-3.8298 1.02401,-5.64167 0.0529,-1.14767 -0.71445,-2.31598 -1.98142,-2.16659 z m -17.12244,71.91167 c -0.33081,0.1 0.0867,-0.0458 0,0 z"
       id="path29726"
       transform="translate(-3.7)" />
    <path
       style="fill:#000000;stroke-width:1"
       d="m 585.53987,403.79446 c -1.7712,-0.0184 -3.8174,0.31011 -4.92025,1.76353 -0.21154,0.94684 -1.68486,1.25449 -1.39785,2.50773 0.10134,1.89986 2.37857,1.84497 3.76539,1.87101 0.30601,2.0604 -0.44049,4.50326 0.78334,6.32045 0.8883,0.59158 1.38793,1.88089 2.73496,1.6578 0.94889,-0.12785 0.89124,1.65448 2.12746,1.45802 0.90906,-0.13616 1.3423,0.21038 1.84648,0.89433 0.98248,0.2242 0.96678,1.51418 1.98784,1.76645 0.26445,1.1738 1.69349,1.01379 2.09357,2.0632 0.80912,0.40368 0.76533,1.6658 1.81494,1.83713 0.34406,1.05837 1.58796,1.08672 1.88445,2.1479 0.90392,0.45247 1.23212,1.56833 2.2291,1.86459 0.1955,1.04765 1.57435,1.14488 1.31782,2.3173 0.051,1.26849 1.47892,1.39805 1.83539,2.43939 1.01187,0.46211 1.01918,1.99443 2.3208,2.09357 0.31971,0.86411 1.44512,0.96242 1.09878,2.05385 -0.0735,1.49685 1.60898,1.51802 2.17652,2.57491 1.01774,0.56356 0.0425,2.42337 1.45452,2.9067 0.51222,0.48044 0.69775,1.64805 1.72323,1.65897 -0.18567,1.14797 0.56784,2.0936 1.30497,2.73672 0.20075,1.06119 1.70063,0.811 1.51995,1.95922 0.38697,1.14873 1.40811,1.90763 2.08189,2.87048 0.77619,0.3656 0.8562,1.51848 1.79332,1.73199 0.29369,1.07117 1.62622,1.06307 1.86809,2.12921 0.81451,0.97395 2.38399,0.024 2.82785,1.33594 0.95525,0.38351 0.86563,1.95397 2.20572,1.89145 0.80448,-0.0601 1.32031,0.0525 1.68234,0.80028 0.95526,0.38352 0.86563,1.95398 2.20573,1.89146 1.00261,-0.20221 1.33206,0.39232 1.98609,0.9802 0.68735,0.52412 1.97398,-0.23734 2.04684,0.91944 0.68555,1.35113 2.54215,0.20733 3.05508,1.57368 1.1316,0.31427 1.17487,1.89883 2.51941,1.93995 2.28829,0.22707 2.18333,-2.64006 2.17332,-4.18516 0.27282,-1.03562 -0.5357,-2.72352 0.80523,-3.10788 1.0911,-1.3284 0.81132,-4.10392 -0.93521,-4.7526 -0.28295,-0.97671 -1.36719,-1.12483 -1.53747,-2.1479 -0.6023,-0.57001 -1.35289,-0.59866 -1.70628,-1.41188 -0.92706,-0.50768 -1.37181,-1.88092 -2.71978,-1.6356 -0.93423,0.077 -0.98256,-1.57759 -2.13855,-1.50476 -0.49594,-0.78045 -1.28128,-1.12472 -1.52871,-2.04918 -0.67266,-0.49588 -1.30377,-0.77118 -1.82136,-1.45685 -0.83699,-0.49821 -1.86339,-0.0953 -2.08715,-1.25883 -0.61931,-0.51724 -1.31308,-0.57991 -1.66773,-1.36632 -1.18702,-0.4428 -0.0571,-2.36176 -1.46328,-2.87983 -0.97993,-0.10316 -0.81327,-1.53958 -1.8862,-1.68409 -0.22157,-1.11739 -1.63839,-0.92162 -1.76529,-2.01938 -0.82763,-0.46366 -0.86457,-1.10124 -1.11221,-1.95513 -0.41316,-0.83152 -1.43285,-0.91922 -1.55558,-1.90548 -0.57792,-0.50035 -1.08374,-0.78127 -0.88906,-1.65372 0.10795,-1.18712 -1.12493,-1.49507 -1.72498,-2.08539 -0.54283,-0.58492 -1.21007,-0.85059 -0.96735,-1.78982 0.17227,-1.05391 -1.08941,-1.35371 -1.26525,-2.08598 0.0455,-1.37936 -1.42446,-1.79289 -1.75419,-2.92832 -0.72624,-0.53782 -1.01253,-1.2625 -1.65196,-1.87276 -0.95314,-0.11888 -1.19052,-1.1435 -1.92709,-1.58887 -0.17617,-1.26568 -1.67754,-1.11474 -2.07605,-2.16952 -0.91,-0.43423 -0.94848,-1.91048 -2.18937,-1.96856 -0.37411,-0.86332 -1.30903,-1.03183 -1.48782,-2.00303 -0.6023,-0.57002 -1.35289,-0.59866 -1.70628,-1.41188 -0.94088,-0.37328 -1.09055,-1.5754 -2.12103,-1.91366 -0.48163,-0.93891 -1.78045,-0.99666 -2.41953,-1.40136 -0.23466,-1.20665 -1.6836,-1.03921 -2.08013,-2.08423 -0.71195,-0.77756 -2.22353,0.14945 -2.34827,-1.1309 -0.60656,-0.86156 -1.76452,-0.75789 -2.58425,-1.30673 -1.25904,-0.25036 -2.55641,-0.24954 -3.83491,-0.24125 z"
       id="path29765"
       transform="translate(-3.7)" />
  </g>
</svg>
